<mxfile host="65bd71144e">
    <diagram id="Ic6YHzJVHnggIdeyqli8" name="Page-1">
        <mxGraphModel dx="755" dy="493" grid="1" gridSize="10" guides="1" tooltips="1" connect="1" arrows="1" fold="1" page="0" pageScale="1" pageWidth="827" pageHeight="1169" math="0" shadow="0">
            <root>
                <mxCell id="0"/>
                <mxCell id="1" parent="0"/>
                <mxCell id="2" value="&lt;&lt;interface&gt;&gt;&#10;Prototype" style="swimlane;fontStyle=3;align=center;verticalAlign=top;childLayout=stackLayout;horizontal=1;startSize=40;horizontalStack=0;resizeParent=1;resizeParentMax=0;resizeLast=0;collapsible=1;marginBottom=0;" vertex="1" parent="1">
                    <mxGeometry x="510" y="230" width="160" height="100" as="geometry"/>
                </mxCell>
                <mxCell id="4" value="" style="line;strokeWidth=1;fillColor=none;align=left;verticalAlign=middle;spacingTop=-1;spacingLeft=3;spacingRight=3;rotatable=0;labelPosition=right;points=[];portConstraint=eastwest;strokeColor=inherit;" vertex="1" parent="2">
                    <mxGeometry y="40" width="160" height="8" as="geometry"/>
                </mxCell>
                <mxCell id="31" value="+ getField1():String" style="text;strokeColor=none;fillColor=none;align=left;verticalAlign=top;spacingLeft=4;spacingRight=4;overflow=hidden;rotatable=0;points=[[0,0.5],[1,0.5]];portConstraint=eastwest;fontStyle=2" vertex="1" parent="2">
                    <mxGeometry y="48" width="160" height="26" as="geometry"/>
                </mxCell>
                <mxCell id="5" value="+ clone():Prototype" style="text;strokeColor=none;fillColor=none;align=left;verticalAlign=top;spacingLeft=4;spacingRight=4;overflow=hidden;rotatable=0;points=[[0,0.5],[1,0.5]];portConstraint=eastwest;fontStyle=2" vertex="1" parent="2">
                    <mxGeometry y="74" width="160" height="26" as="geometry"/>
                </mxCell>
                <mxCell id="30" style="edgeStyle=none;html=1;endArrow=classic;endFill=0;endSize=10;" edge="1" parent="1" source="6" target="2">
                    <mxGeometry relative="1" as="geometry"/>
                </mxCell>
                <mxCell id="6" value="Client" style="swimlane;fontStyle=1;align=center;verticalAlign=middle;childLayout=stackLayout;horizontal=1;startSize=29;horizontalStack=0;resizeParent=1;resizeParentMax=0;resizeLast=0;collapsible=0;marginBottom=0;html=1;" vertex="1" parent="1">
                    <mxGeometry x="240" y="265" width="120" height="30" as="geometry"/>
                </mxCell>
                <mxCell id="13" style="edgeStyle=none;html=1;dashed=1;endArrow=block;endFill=0;endSize=10;" edge="1" parent="1" source="9" target="2">
                    <mxGeometry relative="1" as="geometry"/>
                </mxCell>
                <mxCell id="9" value="ConcretePrototype" style="swimlane;fontStyle=1;align=center;verticalAlign=top;childLayout=stackLayout;horizontal=1;startSize=26;horizontalStack=0;resizeParent=1;resizeParentMax=0;resizeLast=0;collapsible=1;marginBottom=0;" vertex="1" parent="1">
                    <mxGeometry x="480" y="390" width="220" height="112" as="geometry"/>
                </mxCell>
                <mxCell id="10" value="+ field1: String" style="text;strokeColor=none;fillColor=none;align=left;verticalAlign=top;spacingLeft=4;spacingRight=4;overflow=hidden;rotatable=0;points=[[0,0.5],[1,0.5]];portConstraint=eastwest;" vertex="1" parent="9">
                    <mxGeometry y="26" width="220" height="26" as="geometry"/>
                </mxCell>
                <mxCell id="11" value="" style="line;strokeWidth=1;fillColor=none;align=left;verticalAlign=middle;spacingTop=-1;spacingLeft=3;spacingRight=3;rotatable=0;labelPosition=right;points=[];portConstraint=eastwest;strokeColor=inherit;" vertex="1" parent="9">
                    <mxGeometry y="52" width="220" height="8" as="geometry"/>
                </mxCell>
                <mxCell id="12" value="+ concretePrototype(p:Prototype)" style="text;strokeColor=none;fillColor=none;align=left;verticalAlign=top;spacingLeft=4;spacingRight=4;overflow=hidden;rotatable=0;points=[[0,0.5],[1,0.5]];portConstraint=eastwest;" vertex="1" parent="9">
                    <mxGeometry y="60" width="220" height="26" as="geometry"/>
                </mxCell>
                <mxCell id="23" value="+ clone():Prototype" style="text;strokeColor=none;fillColor=none;align=left;verticalAlign=top;spacingLeft=4;spacingRight=4;overflow=hidden;rotatable=0;points=[[0,0.5],[1,0.5]];portConstraint=eastwest;" vertex="1" parent="9">
                    <mxGeometry y="86" width="220" height="26" as="geometry"/>
                </mxCell>
                <mxCell id="22" style="edgeStyle=none;html=1;endArrow=block;endFill=0;endSize=10;" edge="1" parent="1" target="9">
                    <mxGeometry relative="1" as="geometry">
                        <mxPoint x="590" y="580" as="sourcePoint"/>
                    </mxGeometry>
                </mxCell>
                <mxCell id="29" value="" style="edgeStyle=none;html=1;endArrow=block;endFill=0;endSize=10;" edge="1" parent="1" source="24" target="23">
                    <mxGeometry relative="1" as="geometry">
                        <mxPoint x="590" y="600" as="sourcePoint"/>
                    </mxGeometry>
                </mxCell>
                <mxCell id="24" value="SubclassConcretePrototype" style="swimlane;fontStyle=1;align=center;verticalAlign=top;childLayout=stackLayout;horizontal=1;startSize=26;horizontalStack=0;resizeParent=1;resizeParentMax=0;resizeLast=0;collapsible=1;marginBottom=0;" vertex="1" parent="1">
                    <mxGeometry x="467.5" y="590" width="245" height="112" as="geometry"/>
                </mxCell>
                <mxCell id="25" value="+ field2: String" style="text;strokeColor=none;fillColor=none;align=left;verticalAlign=top;spacingLeft=4;spacingRight=4;overflow=hidden;rotatable=0;points=[[0,0.5],[1,0.5]];portConstraint=eastwest;" vertex="1" parent="24">
                    <mxGeometry y="26" width="245" height="26" as="geometry"/>
                </mxCell>
                <mxCell id="26" value="" style="line;strokeWidth=1;fillColor=none;align=left;verticalAlign=middle;spacingTop=-1;spacingLeft=3;spacingRight=3;rotatable=0;labelPosition=right;points=[];portConstraint=eastwest;strokeColor=inherit;" vertex="1" parent="24">
                    <mxGeometry y="52" width="245" height="8" as="geometry"/>
                </mxCell>
                <mxCell id="27" value="+Â SubclassConcretePrototype(p:Prototype)" style="text;strokeColor=none;fillColor=none;align=left;verticalAlign=top;spacingLeft=4;spacingRight=4;overflow=hidden;rotatable=0;points=[[0,0.5],[1,0.5]];portConstraint=eastwest;fontStyle=0" vertex="1" parent="24">
                    <mxGeometry y="60" width="245" height="26" as="geometry"/>
                </mxCell>
                <mxCell id="28" value="+ clone():Prototype" style="text;strokeColor=none;fillColor=none;align=left;verticalAlign=top;spacingLeft=4;spacingRight=4;overflow=hidden;rotatable=0;points=[[0,0.5],[1,0.5]];portConstraint=eastwest;" vertex="1" parent="24">
                    <mxGeometry y="86" width="245" height="26" as="geometry"/>
                </mxCell>
                <mxCell id="37" style="edgeStyle=none;html=1;exitX=1;exitY=0;exitDx=0;exitDy=0;endArrow=classicThin;endFill=0;endSize=10;startArrow=diamondThin;startFill=0;startSize=31;" edge="1" parent="1" source="32" target="2">
                    <mxGeometry relative="1" as="geometry"/>
                </mxCell>
                <mxCell id="32" value="PrototypeRegistry" style="swimlane;fontStyle=1;align=center;verticalAlign=top;childLayout=stackLayout;horizontal=1;startSize=26;horizontalStack=0;resizeParent=1;resizeParentMax=0;resizeLast=0;collapsible=1;marginBottom=0;" vertex="1" parent="1">
                    <mxGeometry x="190" y="390" width="220" height="164" as="geometry"/>
                </mxCell>
                <mxCell id="33" value="- items: HashMap&lt;String,Prototype&gt;" style="text;strokeColor=none;fillColor=none;align=left;verticalAlign=top;spacingLeft=4;spacingRight=4;overflow=hidden;rotatable=0;points=[[0,0.5],[1,0.5]];portConstraint=eastwest;" vertex="1" parent="32">
                    <mxGeometry y="26" width="220" height="26" as="geometry"/>
                </mxCell>
                <mxCell id="34" value="" style="line;strokeWidth=1;fillColor=none;align=left;verticalAlign=middle;spacingTop=-1;spacingLeft=3;spacingRight=3;rotatable=0;labelPosition=right;points=[];portConstraint=eastwest;strokeColor=inherit;" vertex="1" parent="32">
                    <mxGeometry y="52" width="220" height="8" as="geometry"/>
                </mxCell>
                <mxCell id="35" value="+ addItem(id: String, p: Prototype)" style="text;strokeColor=none;fillColor=none;align=left;verticalAlign=top;spacingLeft=4;spacingRight=4;overflow=hidden;rotatable=0;points=[[0,0.5],[1,0.5]];portConstraint=eastwest;" vertex="1" parent="32">
                    <mxGeometry y="60" width="220" height="26" as="geometry"/>
                </mxCell>
                <mxCell id="38" value="+ removeItem(id: String)" style="text;strokeColor=none;fillColor=none;align=left;verticalAlign=top;spacingLeft=4;spacingRight=4;overflow=hidden;rotatable=0;points=[[0,0.5],[1,0.5]];portConstraint=eastwest;" vertex="1" parent="32">
                    <mxGeometry y="86" width="220" height="26" as="geometry"/>
                </mxCell>
                <mxCell id="42" value="+ getById(id: String): Prototype" style="text;strokeColor=none;fillColor=none;align=left;verticalAlign=top;spacingLeft=4;spacingRight=4;overflow=hidden;rotatable=0;points=[[0,0.5],[1,0.5]];portConstraint=eastwest;" vertex="1" parent="32">
                    <mxGeometry y="112" width="220" height="26" as="geometry"/>
                </mxCell>
                <mxCell id="36" value="+ getByField1(field1: String): Prototype" style="text;strokeColor=none;fillColor=none;align=left;verticalAlign=top;spacingLeft=4;spacingRight=4;overflow=hidden;rotatable=0;points=[[0,0.5],[1,0.5]];portConstraint=eastwest;" vertex="1" parent="32">
                    <mxGeometry y="138" width="220" height="26" as="geometry"/>
                </mxCell>
                <mxCell id="41" style="edgeStyle=orthogonalEdgeStyle;html=1;entryX=0;entryY=0.5;entryDx=0;entryDy=0;startArrow=none;startFill=0;endArrow=oval;endFill=0;startSize=31;endSize=10;" edge="1" parent="1" source="39" target="36">
                    <mxGeometry relative="1" as="geometry">
                        <Array as="points">
                            <mxPoint x="300" y="580"/>
                            <mxPoint x="160" y="580"/>
                            <mxPoint x="160" y="541"/>
                        </Array>
                    </mxGeometry>
                </mxCell>
                <mxCell id="39" value="" style="shape=image;verticalLabelPosition=bottom;labelBackgroundColor=default;verticalAlign=top;aspect=fixed;imageAspect=0;image=data:image/png,iVBORw0KGgoAAAANSUhEUgAAANgAAABKCAYAAADZjpqlAAAABHNCSVQICAgIfAhkiAAAABl0RVh0U29mdHdhcmUAZ25vbWUtc2NyZWVuc2hvdO8Dvz4AAAAmdEVYdENyZWF0aW9uIFRpbWUAbWnpIDMwIG9jdCAyMDI0IDE3OjI3OjA1JEY4kgAAIABJREFUeJztnXl4VdW1wH93npKbm+GGjAxhSsIkg4JARUFFwQm1orXie75+Vvu0WgeqdX4KOOFTa2pBBEdq/VQUrIiAgkWGEkEJAUxICCRkJtOd5/cHb2/OPVwQVCpo1vfly733nLP32vvstde8tiYWi8UAurq6iEQiRKNR/v+nEwaifa1We8L76oZu+L6g0WhISUlBr9cf/7OxWCzm9/vZsmULdrudUCiERqNBo9GcAFS7oRtOHRCbv9lsJhqNUlhYiFarPa42NLFYLOZ2u9m5cyfBYBCj0dhNXN3QDf8PoVCISCSCzWbDYrEwcODA46IPPRxkgbFYDI1GQ58+fdBqtUSj0W5C64afLcRiMQwGA3v37qWjowOPx4NGo2HXrl0MGDAAnU4naeZoECdUxmIxIpEIsVjsmB7uhm74qYKgBYBIJILFYsHr9RKLxaisrGTAgAHHJC4en0DZDd3wM4RoNEpycjK5ubm43W78fj/ffPMN0Wj0W5+N42DCuCE4VzcH64afMwhaiMViRKNRHA4HoVCIxsZGAHbu3ElhYSE6ne6IbRyVgwlREQ5ScSQSOcyU/2Oa2dW4HStOyvvEWJTi8bG08UOBco4FDmJnVF471jai0ehxP/9DQqK5Vf5+qoFQlcS7cTgcZGVl4XK5CAaDVFZWSlEyERyVwJQUbDAYSE5Oxm63Y7FY4gwjPxYIHMxmM8nJyej1+m/FSX3darWi1WrR6/UkJydL35xo+0QvEOUc6/V67HY7ZrNZ4nAs86tsw2KxYLVa48apHMOJXugCD51Oh9Vqlf2K308lUOIt1ohWqyUjI4P8/Hx8Ph9+v5+Kioojju2onjPxQoxGI/X19WzevJloNErPnj0ZNGiQXNAClEQnfld/Fu2qn1F/PpbrArfS0lL279/PyJEjyc7OjvPlqQlK2YZOp+Pzzz9nyJAheL1eSktL+cUvfoHNZiMajaLX6yVXSzS2RDgl+n6kMSuJ2GAw0NTUxLp16ygqKqK4uFiO42jzoPxsMBjYuHEj4XCY0aNHEw6H0Wq16HQ6wuFwHC7fdxxHey86nY6uri7Ky8s588wz4+bwVAOx8bndbmpra6V1XaPRoNfr8Xg8xGIxdu7cyYABAw5zRh+Rg4kXr9PpaGlpYfbs2bz00ku8+OKLLF68GIPBIEVGpTiglFnFf7WooL6mlnWVf8qdXC3ShcNhjEYjK1eu5Nlnn6W6uhq9Xk84HI6zhKo5UTQaxWKxsGnTJt544w1MJhO7d+9mwYIFHDhwAJ1ORyQS4cCBA/j9/sPaUuKv5hTiT4m/ejzKOYaDYp3ZbGbt2rXMnj2bv/3tb1LME+KHuj31go9Go+h0Oj7++GM++OADeT0QCNDa2nrYfB7PONRjSvTelGK2uPbmm2/y6aefYrVa49o5FUDMhxir2+2msbGR5uZmmpqaaGpqwuPxEAqFpAnf7XbLZwUckYNpNBoikQipqal8+eWXVFdXM3bsWP7zP/8Tv98vF6lSwRNmTI1GQ3JyMuFwmEgkgslkIhgMEgwG0Wq1JCUlyWfC4TCBQACNRoPBYMBoNMYh6fP54hBOSkqS38XiMxgMEhfxMnU6HYFAIOFi1Ol0eDwe/va3v3H11VeTnJzMyJEjWbx4MTqdDpPJRG1tLU899RSPPfYY6enptLe3S66mxMHn88k+LBYLgUAAs9ksfYkejweTyYTJZCIajRIMBuM4k9jEfD4fEydOJCUlhb59+8r5MJvNeL1eDAaDnOtgMHgYR9JqtQQCAWbOnEksFiMUCpGRkcFLL71EXV0djz76KC6XS747IRILQhbj0Gq1GI1GgsGgVAUikQherxez2YzRaCQajRIIBOJwEKK2RqMhFAphs9mYPn06b7zxBmPHjsVkMhGJRI47EuLHAkFcaWlp6HS6hHiLzaWrq4tgMJiwnSMSmGCNe/bsYcuWLXLhdXZ2kpubi9lsZseOHVRUVBAOh+nTpw+DBw+WL2TNmjVkZmbicDhYv349RUVFDBw4EI/HQ2lpKbW1tRgMBoYPH06vXr0IhUI0NTVRV1dHS0sLoVCI7Oxshg4dKgen0WjYtGkTNTU1AOTl5TFmzBiJr0ajYfPmzXz99dekpaUxfvx4uSDE85FIhKSkJFatWoVGo2HMmDH4fD68Xi/V1dUMGTKEffv2sXr1ajo7O/nss89IS0tj0KBBpKen09XVxaeffkpDQwM9evRg3LhxWCwWwuEwW7ZsoV+/fmzbto1du3aRn5/PWWedRW1tLZs2bSIcDjN27Fjy8vIIBoNxHAAOxmY6nU70ej16vZ7a2lqqq6sZPnw4dXV1bNu2jUgkwtixY3E6nYeJwjqdjpqaGsLhMP3792f9+vWUlZXh9/t5//33SU5OZsiQIRiNRtrb21mxYgWtra3k5uYyduxYjEYjfr+fXbt20adPH0pLS6mqqqJfv36MHTuWyspKSktL0el0jB8/noyMDMLhMHq9ni+++IKKigrMZjN9+/ZlyJAhjBkzhrfffpvPP/+cSy+9lM7OzlMmDE8QmM1mIzk5+bDrSo7vdruPaLI/IoEJ2/+bb77J22+/TV5eHuvXr+ett95i4cKFbNmyheeeew6/3y931osvvpgbb7yRUCjEs88+i9PpxGAwsHbtWh599FH69+/PU089xRdffEFSUhKBQIC0tDRmzpzJ8OHDefLJJ1m5cqXkfgBXX301M2bMIBqN8sorr7BkyRLC4TDBYJDevXszcuRIAIxGI++88w67du0iFAqh1WrZv38/N9xwAz6fL+6l6nQ61q9fz+DBg6W+tXfvXh5//HFefvll6urq2LRpE9FolDVr1mCz2ejbty8ul4tHHnmEQCDAwIEDWbt2LRs3buSee+5Bp9OxcOFCkpOTicVi2Gw2PvjgA8rKyqitrcVut9PQ0MCaNWt44oknsFqtcY5Mq9VKWVkZ9957LxdffDFPPvkkmzdvpqSkhIkTJ7Jt2zaam5sxGAx8+eWX3H///XHB0pFIhJSUFJYsWYLH42HWrFls3LhRbmRLly6lsLCQUaNGUV9fz6xZszCbzfTs2ZOVK1fy1VdfcccddxAIBHj55Zcxm83o9XpMJhPLli1j27ZtVFRU4HQ62b17Nxs3buShhx7C4XDw0UcfsWDBAkaMGEEoFKK6upp+/fqRlZVFUVERW7duZerUqXEGpJMd1CLika5/m9h7RALTarV4vV4uuOACPB4Py5cvZ+zYsTz00ENyMSUlJXH33XeTmprKvHnzWLZsGaNGjWLEiBE4nU5peJg1axajR49m2bJlrF27losuuogbb7yRLVu2MHv2bFauXMlpp53Gueeey/jx4+nfvz9NTU387//+L2vWrOGqq66ipqaGZcuW4XQ6uf7660lJSSEQCGCz2YjFYgSDQQKBAA888AAVFRUsWbKEr776Cr/fH8fe9Xo97e3tNDU1MWrUKAApMqWmpuLz+ZgwYQJ2u52nnnqKRx55hKysLKLRKC+88AIWi4X58+ej1Wqpq6vj9ttvZ8eOHYwePVqKhY8++ihpaWmUlJTw6quvMmfOHCZNmkRVVRV33XUXO3fuZOzYsXg8HilWCUNHRkaGJHqTyYTdbqesrIzrrrsOs9nM66+/zu7du9m7dy8DBw6U4rVYDFarVYppf/jDH9DpdDQ3NzNnzhw6OzvR6XS8/fbb5OfnM2fOHAB2797N73//e2pra8nKysLv9+N0OnnggQcwm808+eSTfPDBB8ydO5czzjiD8vJy7rjjDurr68nOzmbDhg2MGTOGRx55BL/fT1dXlxRTi4qKeO+99/B4PIcZxU5mOBZf8LHcc1QdLBQKUVBQQGFhIUuWLCEnJ4ezzz6b999/n5aWFqZOncrZZ5+NwWDg66+/ZufOnezcuZPhw4dLOfw3v/kNffv2xePxsH37dqxWK3l5eTQ1NQGQnJxMY2MjXq+XCRMm4HK5aGxsRKvVYrPZ6OzsJBqNUl1djcfj4ZJLLmHKlClSl4lEIlL0u/zyy5k8eTIFBQV8+umnBAIBvF6v1DWEriJ0EafTGacXiLaCwaC0DrlcLpKSkohGo9TU1GAymXjvvfdwu93o9XoCgQBNTU3SUifEUpfLRXp6OkVFRQwePJgDBw5gNptxOBx0dXUdlqojXpLS4iYU5/PPP58rrrgCgM8//5ytW7fi8/lkPJyyDWFo0Gg0eDweqa91dnbi8/nQ6/VUVlbSt29f/v73v8sNSIjoOTk5RCIRJkyYgEajwev14nQ6KSwspKioiObmZhwOh3w3kUiEESNG8Nprr7FgwQImTpxIRkYGfr+fSCRCjx49cLlcBAIBjEbjUX1GP0U4qg6m0WgIBALyJQSDQSKRCG1tbcRiMVJTUyXnyM7ORqPRyLwyYULXarUyvMTr9WIymfj4449ZtmwZOp0Oo9GIw+FAr9fz9ttv89577+Hz+UhOTsbtdktfisvlAiAjIwOfzyctNkajUeofZrNZEoYwsauNHGLjiEQiMg1BqeMJUP6m1+txuVyEQiFCoRBVVVVShB0zZgwFBQVSpwqHw7JNjUaDVqslHA5jMBiAQ05xcf1ooPTzCWOPWKSCiBJxBNGusg+tVivfYTAYpKOjg+rqain+TJw4kZycHGnaD4VCckNSWh11Op0caywWIxAIcN5556HRaPjHP/7Bhx9+yPXXX8/ZZ58traOxWAy/34/dbj/qeH+KcFQOptxJ4dBLSklJQaPR0NraitFoxGQy4XK5iEaj2O12qZMpzdsmkwmr1UogEOD3v/89Q4cOxefzodVqMZlM7Ny5k5dffpk+ffpQUlICwN13300wGESv12OxWKRYJvQDtTVOLADxXbk4xJgA6TBUGhoSjV0QWTgclgtl1KhR3HjjjbS3t6PT6dDr9fj9fmkhVbYh8FB+Vxs2jgZKPUC9SSTy8SV6Xrw3MT8mkwmdTseECRO4/PLLaW9vR6/XS6urMDkr50HZViLcdDodl1xyCRdccAHvvvsuixYtoqioiF69ehEIBOQ7PlXEwx8SjslmKghLq9USiUTo168f6enpbNq0iU8++YQNGzawcuVKjEYjRUVFcufW6XTyJZhMJqkzrFy5krq6Og4cOMDatWtpb2+nq6tL7vR79+7lvffeo6mpSZrtCwoKMJvNbNiwgb///e9s2rSJ5cuXSwIUfYkXfyTTqsjtMRqNtLa2xukF4n7BKQKBADqdTuYCDRo0iFWrVrF3714sFguxWIy6ujpJqGKORBvKORB4HYlzKXFQEriyTeW7SASJiE+n0+H1erHZbJjNZkwmE4MGDWLJkiW0trZiMpkIh8PU1dVJrqjemMQ4lH2I70KMDYVCpKWlMW7cOPx+Py6XC4PBQGtrK8nJyVJa+LnBt0ZyCJ2ks7OTQCBAMBgkPz+fX//61yxcuJAnnnhCvvTLLruMkSNH4vV68Xg80g+l1Wrx+/2ce+65lJWV8cknn7B+/XoAPB4P99xzD2eeeSbFxcVs27aNW265hdNPP50hQ4bwr3/9i7a2NoYOHcrkyZP56KOPKCkpIRQKkZWVxYQJEwgEAnR0dEi/TDQaxeVyHRb2JES4tLQ00tPTqa6uBg6Z710ul1TOs7Oz0ev1PP744zgcDi699FKuvvpqysvLuf322xk8eDBtbW0YjUbuuusuNBqN1DXEIg8Gg7jd7jgc3G53nIilnGelriQ4bGdnJ36/XxKl1+uls7NTjlXdhnA5iGsDBgxg6dKlzJw5E5PJxK233sr06dN59NFHufnmmykuLqaxsRGn08ltt90GIMVhpbPa7XbHEa/L5ZIm+vnz59PY2EjPnj3ZunUrw4cPJy8vj0gkQmVlJXl5edhsNnw+n5zvnwtoYrFYzOPxUF5eTjgcpl+/fnEKuF6vp7GxkerqanJycujduzehUEhGP1RUVBAKhejTpw/FxcXAQZGqvLycaDRKcXGxdDIaDAZ8Ph9lZWXs378fi8VCv3796Nmzp/TNbNu2DZPJxPDhw+no6OCbb75h2LBhpKSkEAqFKCsro66uDqPRSL9+/SgoKKCqqorW1lb69+8vdbRdu3YBUFxcHBejGA6HsdvtvPvuu6xevZqnnnoKnU5HZ2cn1dXVFBUVSaduZWUlX331FSkpKYwYMUIGeW7ZsoX6+npSU1MZNGiQtDLu2LEDp9NJVlYWAE1NTTQ3N1NUVCQtjDt37iQzM5OsrKw4ItHpdBw4cIDKykqcTicDBgygvr6e6upqcnNzyc/PB6CyspK2tjYKCwtxOBxxupher6eqqkpKGUIs3LBhAw0NDfTp04dhw4ZhNpvp6uqitLSU1tZW0tPTGTJkCOnp6YRCIXbu3Elubi4ZGRkA1NfX09bWxqBBg6QRZfv27fTq1Yu0tDSqq6upqKigq6uLHj16cMYZZ2CxWIhGo9xzzz2ce+650g8mOPqpDspNs7q6GqPRSJ8+fXA4HHGi+1EJTGk+NplMhEIhuUMLBVYpOih3KBEFoIx0EPK60GeEyCk4nehHKMVarVYq+GIhCdFMtOf3+zGZTBgMBvx+v1TSzWYzcCgSROmz0Ov1dHV1ceedd3LzzTdz5pln4vV6sVqtMtIBDhpQDAYDGo0Gv99PKBRCp9NhsVjkOIXRAJAO51AoBByMMBE6msDBYrFIY4lyoQm8zGYzoVAIv98v9VtlH0L/VM6Jsg2TySTxFTiK9xSLxfB6vdItoZzLQCAgcbJYLNL6KOZBRJso36+4R8y/2JTdbjc2m43169ezcOFC5s6de8pFcnwbHCuBHZOIqCQsJfEpFw7EK/DCyqfWKURcl9qIIqxtYiEJ4hPGA2W7ap3G7/dLsUoQXqL+BZ6hUAin08lll13GK6+8QlFRkTTUKHfYQCBAIBCI04eE+KnGAZAGAvFdzJsafzVOSu7a1dUl21DPOxzaMI7UhiAspS6oDGETbUUiEdmXuj0ljmIe1G0q7xHzL+Zer9fT0dHB4sWLufzyy7Hb7dLnd6o4mn8oOCqBKQknUVJZIl+OWglWgnpBKgky0TXlf/E5kUld+fuR8FVvAj6fjwsuuACDwUAgEJCxjGrCV+N5JPyBhH0qf0v0/WjznGgcag6gbkN5Xb35if/HO45EfQqOKIhTaRARQQoXXnghEydOlMT3cyIsAcdf6I3DF/eRrn2XZ4523/H8diRQ7vhwMLwrEAjEiVuJiPtYfj/Z4ESPI9G70mgOGozS09OZOnUqXq9X/v5z417wHQnsVAa1zpJIZOuG7w5iDiORyGGi5s8RTqjGqTQhiz/lNfWf+hnlfUf7/F3xgsQ62r8TEo0p0ZwkcvQeaV6+Kx6JcDjeNhOJoN8Hr6PBkdbX8fT1Q68tNZwwAlMvWPFZPQmJxJREi11NnGq94XgXgfh/JHHph4RvIwZhHFAuTPXcJZqn7ysuK/H7Ie5R43Ci51f5/r9PG0pQ69/fF06YiKgkKJH9rMw2NpvN8rPBYJCxb+pnRQq2eB6Q5mNlntfJDmpjjvgNkC4KkY8lHLjC2qdsQ4CaC4t2vstcKOdbGQETi8XikipPNlCuF2Hh/S6SiHLcynUo2v4+cMIILBY7lJr/4YcfsmLFCq644grOOussAEpLS1m2bBkul4vc3FxmzJhBampqXAmCpKQk1q5dS11dHddddx1PP/00KSkp/Md//Ac+n0/6utSREeqdTckV1UYOcV3grH4+0aI+UvtHuiZ+E0mryixtEUbW0tLCu+++y+7du2XU+7Rp0zjnnHOkqT4RTnq9nrfeeouUlBQuvvhivF7vYaFOR8JLOSax6e3atYtNmzah1Wrp379/XFqNuu8fEo713anxF/U/5s+fzzXXXENeXt5hiajqdpVtitC5VatW0dLSwq9+9SvpbvkhxnrCvX5arZZ9+/ZRVlbGvn370Ov1tLS0MG/ePL788ku8Xi9NTU3SUSn+DAYDzc3NvPnmmzIyQqfTSfOwVqulvLyc0tJS6UMTEyJ2fbXoJQhX/VssFovjFEeqNyG+q+9VihXKehXiuvje1dXFJ598IkOyhLN+37593HPPPezZs4epU6fy29/+lsmTJ5Oenp4QP2V5OZ1OxzfffMPevXvjIlaUeKlraIg2lHUyNJqD/s5XXnkFm81GdnY2ixYtoq2tLa5dtaiurtNxtBoe6rokyv+J3p0SN+UYRNvivlAoRGlpKR6PJy6FRz1n4n4l7oJL5+Xl8dFHH7F58+a4GiLfF06oiCicwL/5zW+YPn06SUlJskJPa2srgwcP5plnnsHtdsflQYnEwTfeeIPs7GzOP/98Ojs7mTlzJpFIhI6ODnr06MGzzz6L0Whk0qRJdHV1yegPu90ua0YkJyfLqAcRhSFET5/Ph8Viwe/3k5SUJGP+RH0LMQ4B0WgUo9Eon9FoNHERJLHYwSBhs9mMy+WSERButxuHw0FDQwMlJSW88cYbss5HJBLhpZdeIisrizlz5siCOyNHjpT1SvR6PTabDa/XK1N8RIwjEBdJIeZP+PW8Xi92u12mFWk0B9NvRPpMLBaTfsDVq1fjcrm47LLLMBqNLF++nOXLl3P99dfT2dl5mPil1+sT6oaCeEUf6usipSeRZCHeXSgUIikpSb47k8mE0WjE4/GQlJREOBw+LLJE7QsV4xbz4fF4JGGazea4dz18+HB+8Ytf8N577zFixIgfzCl+QkVEseDWrVvH6tWrufjii0lPT2fevHnodDra29u57777OP/88xk3bpxkzXq9nra2NjZv3szVV18t00UWLFiA3W5nypQpPPHEE+zcuROLxcJ///d/M2zYMK666ip8Ph8vvfQSO3fuJBwOU1xczPTp07FarbS0tPDZZ59RVFTExx9/TGNjI0VFRVxzzTUsXryY7du3o9FouOqqqxgxYkRcIZNY7GAYUnV1tYxEj0Qi5OTkcNlll5Gfn49Go6Gmpoa33nqLjo4OAKZMmcJ5553HP//5T15//XWsViuPPfYYGo2GmTNnUldXR3l5ObNnz0ar1dLV1RW3CxsMBjweDwsXLqSqqgqAUaNGcemllx62mws8LRYLpaWlfPDBBzK37sorr2TgwIHodDq++uorqqqqsNlsvPPOO/zyl79k2rRprFq1ShaoicVinHXWWaxevZpp06bFOZYFHDhw4DAdTfRvNptpbW1NaESw2+0yj09JXKFQiAULFrB9+3ZisRhZWVnccMMNpKWlsWPHDt555x3cbjdms5nLLruMYcOGHZEbxmIxFi9ezObNm4nFYvTv35/p06dLQly2bBkOh4MtW7awd+9e7r77biZPnsw999xDVVUVBQUFMorn+xDZCeVgwjBRU1PD0qVLGTFiBCaTSRZHcblcbNq0idNOOy1ODDEYDOzevRu3282gQYPw+XwkJSVRXl5ORkYGer2e4uJivvnmG8xmM2PGjCEzMxO9Xs9LL71EZWUl06dPJxaLsXDhQjQaDb/97W+JRCKsWLGCNWvWMGXKFE477TQWL17M1q1bGTBgAL/85S9ZtWoV8+bNk9xRiApGo5E9e/bw8MMPM2zYMKZMmUJLSwuLFy+moKCAQYMGUVlZyeOPP05hYSHTp09nx44dvPjii2RnZ5OXl0dRURHr1q1j8ODBWCwWTCYTVVVVpKSkkJWVJdNjhMIuXuzzzz9PU1MTV199NS6Xi9dffx2Xy8V//dd/HZYrZjabKS8v5+mnn2bSpEmcdtpprFmzhlmzZvHII48wZMgQXC4XCxcuZPz48Zx33nn07t2b5uZm9u3bxzXXXCOrgQ0dOpS3336bhoYGevfufVjI1F/+8hf27dsniUVsEBdccAFnn302DzzwACaTSa4JkXx79913c9ppp8WFT5nNZl544QVZHkGoEiaTiX379jFr1izGjBnDlClTKC0tZc6cOTz00EMMGzZMbjBiA7BYLLz88susWbOG6667DpPJxOLFi2loaJC1TCoqKvjXv/7FOeecw6RJkzAajTidTtLS0ti+fTsDBgw4rNzEd4ET6mgWO4nJZCItLU0WxPzjH//I7NmzGT58OPfee690Sup0OhnLVllZGVefIhaLYbVaZaDw1KlT2bJlC0ajkeuuuw6fz8fu3bv517/+xZNPPinz0vx+P8uXL8fn80mCufTSS5k+fTrhcJiKigq+/vprbrnlFtLS0sjLy+POO+/kwIEDMuVCENiSJUvo1asX9913H3BQZNy4caPE+bPPPiM5OZkHH3yQcDjMWWedRWVlJRs3buTWW29lypQpfPHFF0ybNo20tDSCwSBdXV1YLBZZlkCp55hMJnbs2EFZWRlz586lf//+GAwGbDYbf/3rX7nkkkvo0aNH3O6t0+lYunQpgwYN4rbbbiMQCHDmmWdy6623smLFCoYPH45WqyU1NZUbbriBgoICQqEQGzZswGKxkJGRIfWdzMxMrFYre/fupW/fvpKIxEZ4++23Jww4FkHSc+fOTcjBhIgtNhKz2cyePXvYvHkzf/zjHznrrLOkCGwwGHj11VfJzc3lrrvuIhKJcNZZZ9HY2Cg3bSUYjUb279/PZ599xo033siUKVOIRCLk5uZy7733Ul5ezujRo4lEIgwaNIi77rpLJprq9Xry8vJkfU211fe7wAmP5FAbF5TR9CKZUVmTT7zEAwcOSJ1NiGpKxbOzs1NaD0WZgvr6+jiuJYqmilIHou3c3Fw6OjrQ6XQYDAZ69uwZJ9Lo9fq4nCpRR7G+vp4zzjiDaDRKR0eHFGuE3tPc3ExbWxsPPPCAjIbfs2cPPXv2JBqNSj1GPGu1WklPTycYDOL3++NKZou52rt3L+np6WRkZNDe3o7BYKCgoACDwUB9fT15eXlyIYi0m5aWFsaMGUMwGOTAgQM4nU6Ki4uprq4mFArJimFms5mWlhaSkpLo7OyUdRjFPItS3u3t7Ql38nXr1smMaIG3z+ejuLiY/v3789FHHx0WWxkIBJg0aRK5ubnyvRoMBhoaGjCZTPTs2ZOSUvmqAAAXEUlEQVTW1lap09rtdvbt20dhYSGhUIjOzk5SUlIYOnQoq1atOqw+pE6no7W1lVgsRkFBAW1tbYTDYbKzs0lNTWXfvn2MHz+ecDgsD3MQ2ekGg4GUlBQaGxu/s8tDDf+2UCm1JU9pkVMSl9KadKTgWyAu6l0oq+KEzvHjx8dl0DocjrgXLVJaxJ/wqymzdAUI3CKRiKwkLPBXZxcHAgFycnKYNGmSNJdPmDCB/Px8/H6/NAoozejZ2dl0dHTQ3NxMv3795HNikYsUGSVeYvMQi0ttGRNzJzYUwWGVlkUx70p/mzpzWXwXFji1Va2xsZGGhgZpYNFqtXg8HrKysgiFQtTU1MSVkhYShVL0Em2KsYj+lXOgTHMR/xPphErrocBH2beQkMR3MS7l2hD3JLJwfhc44QSm9D0IUC4U9X8xaUoLUiIfiJgoUbsvGAySmZlJMBhk6NChFBQUyCI7onCPeDaR5Uv9WbwgUaNR5E81NTVJJ3kwGJSZ00Ls6urqYuLEibI/g8EgOaxoW5n3VVBQgNPp5L333uP++++XRCIsg1lZWRw4cACv1yv1T5fLhdfrJTMzU24OolipKJRZV1cnLW8mk4n6+nocDkeccUG54VmtVpkeIyxsIt9O1HpUE/PNN9+csLKVyF+bNWvWYUSp0WhktrvYVCORCGlpaXi9Xg4cOEBhYaGsiGwwGHA6nezbtw+DwSC5rEh4VVpPRZElh8NBNBqlqamJ3r17S07udrtxOp2HuSyUa0qUVxBc+fvqYCc8FlEgrjbNCkVaSVRwaGfJy8ujpaUlLgVfWQtfq9VisVioqamhsbGRmpoaCgoKyMvL46mnnqK8vJzGxkZWr15NaWmp5DxC9FC3qVw4Quzz+/0sWrSIr776iqSkJIYPH86qVav44osv6Ojo4J133mHv3r2yrsX48eOprKxk/vz5NDQ0sGfPHpYuXUpLSwta7aGS1JWVlTQ1NdHW1kZaWhozZszg888/5/HHH2f37t20trZSXl7Opk2bGDJkCA6Hg/nz59PS0kJtbS0LFy6kqKiInJwcmdxZW1tLU1MT4XCYiRMn8vnnn7NixQqCwSAfffQRW7duZcKECZKglPMgSiR4PJ64rGNRnkDoomrfVFdXF+3t7XR0dMi/9vZ2vF4vkUjksGviujKTW4iNffv2pUePHsybN489e/bQ0dHBpk2baG1t5fzzz+fLL7/kww8/xO/3889//pNPP/2UiRMnSrHQ7/dTU1NDU1MTubm5FBUVsWjRIqqrq2lra+PVV1/FYrHIgz4EYSvxCAaDtLW1xY33pDXTwyGOZDabSUtLk/XZRZFPUeNdORDhJxFm0traWgYMGCAjO8TRPLFYjLFjx7Jp0yZmzpxJfn4+9957L7feeislJSU8+OCD0g/y61//WvaRkpISp8BarVaJhyDclJQU6Wv6+OOPMRqNnHHGGVx44YXU1dUxd+5czGYzvXv3pm/fvtJvU1hYyE033cTixYtZu3YtGo1GpuMHg0GysrIYOnQoJSUl2O12ZsyYgdPpZMyYMTz00EO88cYbPPLII1IvvfDCCxk1ahS33XYb8+bN47777iMajZKTk8NNN90kxddf/OIXLFy4kHvvvZebbrqJ888/n/r6ehYsWEBSUhJer5drr72WUaNG4fP5MJlMsjKYmO+8vDwsFgtVVVX07dsXo9HI7t27sVgs5OXlSU6pFtOPBt92XfQv/Ivi3d1///2y0FCvXr0YPnw4N9xwA2+++SZLly7F7XYzbdo0JkyYgNvtxm63M27cOBYtWkRpaSm33347N998My+88AIPPvig9E3ecccdWCyWuMJHQhLSag/Wy9y/fz/Tpk07bBP4zjQQix29ZMD3AbW8L2R6oScIg4KSe4mFbjKZeOihh8jPz+eWW26ho6NDtifYtl6vp7W1VYpLSgdqY2MjwWCQ7OxsyTkAKc+LNgRHFLqC4K4iakRY+YSuYrFY2L9/P9FolOzsbG6//XYmTZrE5ZdfTkdHB1arFZ/PR2NjIxaLhczMTMkxhMGmoaGB5ORkmV4uNiFxoosoWpqcnEwoFJILoaGhAa1WS05ODtFoVHJag8EgxcgePXqg1R4sk9bR0UFrayuZmZnY7XYptgouJghAGD1efPFFaRLX6XQ88cQT6PV67rjjDikK/xCKf6I1IohMiHbCMCGuCbdOc3MzaWlppKamxhVV0mq1ss6L2ES1Wi1NTU0Eg0FycnJkaTpljKfQMe12u6zX+fjjj0sd8EgiotKm8J1LBnxfUFrhlFxDqUwnstaIBT9lyhTmz5/PxRdfjNPpPMypGQ6HycjIkIaKWCwmLYtZWVlS/BG/AXEhWXDIWKJUfoWeEo1GZWEZOBjzWFNTQ05ODlarlZUrV1JbW0vfvn1laQNhzOjdu7ckAjhUAkGv11NQUBC3yQhxVKvVkp6eLisOC2OMaDs3N1fiIdoUIm1aWhoZGRkyWNXn82Gz2bDb7TLqQfQlFH6luBcMBpk8eTL3338/5eXl2O12ysvLue++++Ji+04EiDUhxpmdnS3fr3gvgvP26dOHSCQix6PU4/Lz8+VnwXGdTqfk0mI+xfoS71j45/7xj38wceJEkpOTZfXl7wsnlMCUVJ6ISym/i89i0jweD2PHjmXDhg188MEH3HLLLbKGhJrIlDuG+C8WthIX5X+lzqV8Xo2baF8UfZk/f77czX0+H1dddRUDBw6MK60WjUal7phoLtTXlPOgHo/yuSONScyDsi1ALjT1nKnHCActoH369GHq1KksXboUq9XKOeecw4ABAw4rgfdDglqvSzROcZ9yXhPNT6JCsup5UXJM8XxSUhJLly4lJSWFqVOnxpWo+97jO5Ei4ncB5QQIf5TL5ZKiFvz701OUC7m9vZ22tjai0ags0fZDhNT8WKBcoEKcb21tBQ6WKRec7lQc27GAWGeiSrUoD6jesNVwUoiI3wUE0kKkElEO6jJn/26cBGRmZpKTkwNwmOh1Ki5EJd6CU+fl5QFIcfNUHduxgFhnYgMXR1/9UHDSERgczsrVIUQ/BgdTiiHKIOBTmbgEqIlMmUlwqo/t20DpqoD4Smk/xJhPSgKDxJWPfmwOdjS5PJFOoHbo/tiLVLlw1DlvAhKN8YewJot2Ejmef8y5OdHr7KdRZlUFSoOGUqFXv9wTAUoRVxlJrjbu/DtwSYSbwEOcsqL2Q57ofrVarax4rLz+Y8zHvwN+cgSm5CDCBPvv3CXFIvJ6vdTV1cVZFuHH3bGVXLW2tjbOOniiFrhykxN+qKamJlpaWg5zFfwU4aQmsEScSBCO8lqiVHSNRoPNZoursa5uR/1bonsS/SXqT3wWTtFPP/2UP/zhDzJyXkRrqwNn1WM6Ei7q64nm4WjzpS4PMHfuXLZs2RIXPX88uCTqO9F1pehsMBh45ZVX+PjjjykpKUnY/08NTmoCU4oVQqQQhWOEpx2QoTDKwM9IJMKCBQuYNWuWzAUTu6iIale2LXZTcR2QkSEajSYuPV70p3ZniM+BQICRI0dy2223YbPZZNLgM888E5dKLxaUwWCQ0SICBC5iHpTjE8+ocVByR6VV0Gw2xx3UodEcTCtJVDFKjE0pPop5EveaTKYj9q3VamV/4h2JYOL169fz9ddfc80113D66aezaNGiuKNwf4pc7KQmMKWFp62tTdaYqKmpIRgMymOG6uvrKSsro7GxEYPBIPPJ1qxZQ1VVFR6PR5Zwdrvd8mxhUaaro6NDZteKAFej0UhLSwv19fVEo1Ha29tlOE99fT3bt2+X9TKUBgNB3FlZWZx++unodDp57OyXX35JZ2cnHR0dUnw1Go00NDSwdetW6YuBQ1HnYvF988031NfXYzabZVJheXm5zIJWcwzBSf1+Pzt27GDHjh3SgQrxx8vGYjG5mdTW1lJeXo7X65XcRRCk4EJ79+6N61twLRH0vGvXLlmyQXl07ocffsi5555Lamoq55xzDtFolHXr1sXFl/7U4KS1IgIywHfdunXMmTOH6dOns27dOhoaGpg3bx7BYJCSkhJKS0vl4p8+fToTJkzg/vvvl+kqv/vd7+jduzdPPvkkTzzxBDU1NTL1f+3atcyZM4fRo0cze/ZsnnzySdavX8/FF1/Ma6+9xrBhw/jd737HrbfeyuTJk/H7/XzyyScYjUaKi4u58847SU5OjovMtlgsfP7557z22mv89a9/5eOPP2bRokVYLBbuvfdeLBYLjz/+OBqNhpKSEr766iscDgfNzc1cffXVTJ06FYPBQElJCVarlcbGRhobG2lvb2fGjBk0NDSwadMmGSJ1//33k5SUFCd+mkwmNmzYwEsvvSRTUfLz87n77rvjCEsQl8fj4S9/+QsVFRUkJSXR1dXFjBkzOPvss9Hr9XzwwQfU1dURDoepqqoiEAhgt9v505/+RFpaGjqdjrKyMkpKSmQhILvdzp133kl+fj6VlZU0NjZy44034nK5SEtLY+jQoXzxxRfyjOefIpwSHEwE5C5ZsgSTycSECROw2+0sWrSITz/9lAkTJnDHHXeQm5vLq6++SnV1NePGjZPcYOzYsZKbiCOJxM4swm+EIzsWi3HgwAGWLFlCUVERI0eORKM5GL61YsUK9uzZw5QpU3A4HJSWlrJ161Z52JwSZ7Gri1NGfvvb36LX65k1axb/8z//Q2pqKu+//z4VFRU8/fTTPPfcc9x444289dZbNDc3y8POP/nkEy688EL+/Oc/c8kll/DMM8/g8Xh4+umneeyxx2hpaWHjxo0yG1oQTHNzM3/+85+ZOHEic+fOZfbs2cyYMSOOUwg8jUYjb731Fnv27GHOnDnMnTuXadOm8eKLL1JTUyOrY61YsYJevXoxd+5cZs2aRXt7O6tXr8Zms9HZ2UlJSQnnnnsuzz//PC+88AIGg4F33nmHpKQkdu3ahd1ulzls0WiUoqIiGhoa6OjoiBOPf0pwUo9KqUeEw2GGDBkiUxn279/Pli1b6NOnj6yY1Nrayq5du2hra+M3v/kNpaWl+Hw+fv/73+NwOGQcmzJrFw4duSP6EoGvN9xwA9FolD179qDRaEhLS+NPf/oT/fr14/nnn+eNN96QoqPaWSuIUugfIj0kLS1NJluuX7+e0aNHE41Gqa6ulsGqIkUnEAgwbtw4xo8fTzQaZejQoWRmZnLJJZeQmpqK3W6nX79+NDQ0xCU+ikBkm83GlVdeicFgwG6343A4ZKyjGL/IGNi8eTNXXXUVvXv3pquri0svvZTVq1ezfv16hg8fjs/nY+DAgfzqV7/C5/PJNJJ9+/bJQ+y9Xi8jRoxg3759WCwWCgsL+frrrwmHw9TX12O327Hb7XR2dkqO6nK58Hg8MrH1p8bJTmoCg/jA1aysLKxWK+FwWMYD+nw+Hn74YWKxmKy94ff75UmOsdjBE1SEvqYEpcyv/KzRaMjNzUWj0cgI7HA4THp6uhSf0tPTgfhwIrUJXsmBxcIWiaYiy3rz5s1UVFRIzuJ0OuM4osjIhkMis6jlJ/pRhpGJPltaWkhNTY2raZKoxIBGczCx0u/3k5mZKY0fRqORzMxMWd9CiJ3iUERhDOns7AQOlXB7+eWX5Rx6PB569uxJKBTC7XZjtVrjTPM2mw04dHBhtw72I4FYCMr0BaPRSDgcpkePHlx77bUy30qn09GzZ8+4kzFFqrnSlC6skcqCLUpQ7/SCUJT1Q+Do4UTq8C6l6CiMI1OnTuWcc86RVbWEFVNZTEcZbSA2DSUOShwFCMJSms8TOZTFXGg0mrjiQmIOjEbjYb48ZT6daFOUV5g5c2ZcfwaDIU4cT7SpCfHwp8a94CTXweDQwhH1AsVC79GjBykpKXR0dJCdnc3kyZM5/fTT6d27Nz169JCLWGRFCyuiOIe5oqKChoYGVq5cKQM8xWJRHoAAh4rqKAvtKL+rF7dS9FRaF6PRqEwItNls5OTkUFZWJgOIs7OzSU5OjjN5K4vDCNyUhKvsQ0AkEqF3797U1dVRX1+P0+kkJSUFq9Uq24rFDiZ5Wq1W7HY7GRkZlJaWkpKSQkZGBm63m5qamrhybUoJQPlbNBqlT58+dHR00NLSQq9evcjOzpZJsHq9npSUFFwul0wp0Wq1spKVKM33UySwk5qDKTmXqPUgxDWHw8FFF13Eiy++yO23307fvn1pamoC4KmnniIzM5Pk5GQqKip49NFHcTgcPPfccxQXF7N+/Xpefvll5s+fT8+ePXE6nezfv59wOIzf76e9vT0utygaPVhyTdSUF76u9vZ2mQem5nahUIiuri4Aia/L5eLNN9/E4XAwevRorrrqKh566CEefPBBTjvtNPbv34/f7+faa6+VOXFK/5s4V1m5GL1er7SWzps3j6amJh599FFGjBhBnz59eOSRR7jsssuIRCLSSulwODCZTCxfvpxoNMqYMWO48sormTt3Lnq9nr59+7JixQrS0tIYN26cPABefTa1z+fD4/EQDAbp378/Z5xxhuwvOTmZbdu2ceaZZ3LBBRfQs2dPNm/eTEdHh/Tp1dTUyMxttZvhpwK6hx9++OFQKERLSwvRaJS0tLQ4keTHBqFv6HQ6hg0bFpcNPHDgQJlaEYlE6NWrFxdddBEFBQUYjUZ69OhBIBAgPT2doqIihgwZQv/+/aXjdtiwYdx0003k5uZis9koKioiGAySkpLCiBEjZGax0KGKi4spLCyURVbMZjMjRoyQKfzKeRN6ytChQ4lGo6SkpKDT6di+fTt+v58BAwbI+oG7du2iuroav9/P6aefTn5+PnDQZ5eXl0dvRXa0RqNh8ODB0mro9XrJy8ujoKBA5iWNGDECvV7PyJEjcbvd7Nixg9bWVgoKChg4cCAajYacnByqqqpoaWmhuLiY4uJievbsSVlZGVVVVfTq1YubbrpJ1ivx+Xw4HA6KioqkmCxKNfTv359wOMzIkSMB2LZtGw0NDTidTs444wzpmF6+fDlDhgyhR48eaDQalixZgtPp5Oyzz447xP5UAYGrqKuYmpoqT/yRayEWO7kSLtUgnJtWq5VgMCjzr5QWs1js0AEGYjEIx2csFpN5ZaKYqDAcWCwWAoGADD51uVyYzWZ5xJDQSUSB1EgkIisSKQ+BSJS9LCItRIVa0a+osx8IBAgGg1gsFgwGgzyIQtmHzWaT4wFk6TjlIQbiJBDxvEZzsPyAsBDabDb8fr/U7zwejzRYiHkU6fTCCBEMBjGbzXg8HulbE/qq0iAh+lOewyxy94QI6na7CYVC2Gw2Zs2ahcVi4YEHHmD37t386U9/4u6776awsFBGdJwqoLQYHy3h8qQmMOUghCNXHcIjOIdInFPrPEoFXa3PKA0WYkGK0B61/iPaFrus+j61FVJpjBC4qs346vuUYwHi+hR4KAOY1fcoA4qV86McoxJ/Jb6JcFH2I64p51/5mxI/ZXuiLYvFwjfffMNjjz3Ggw8+yMqVK3G73dxzzz1y4xO4nApwrAR2Uutgykk/UnqD0uyrXszKhZ9I/FD+pqwcq85oVfef6L5EbQtQb1ZKAkiEo3JsajzUvyn9X8r5UvrixG9qQlM+dzRclO0o+1GPUY2PskqvKKl9xRVXyAP+rr/+epnoeKoQ1vFC3KpRmnRPFZ+EGs8j+bYSfVf+dqLHeyRcjgf/Y23/eNv+tvu/Lx6A1NkuueSSOLO9sv7gqQTKuTka7ic1B+uGnx4oS+j9HCCOwJQ+oJ+qX6IbuuGHAKVIfTQ60YubBZsWcXfd0A3dcGygPP1FDXpAhuYoa8J1E1k3dMPRQeheRqNR5gaqQRP7/7vEETvqeLFu6IZuODIIC6tWe/DQkMOux7qpqRu64YTBYTytm966oRuOD77VyHGsN3dDN3TD8cFJn67SDd1wKkM3gXVDN5xA+D84HimSvHxJAwAAAABJRU5ErkJggg==;" vertex="1" parent="1">
                    <mxGeometry x="221.19" y="590" width="157.62" height="54" as="geometry"/>
                </mxCell>
                <mxCell id="44" style="edgeStyle=orthogonalEdgeStyle;html=1;exitX=0;exitY=0;exitDx=0;exitDy=0;entryX=1;entryY=0.5;entryDx=0;entryDy=0;startArrow=none;startFill=0;endArrow=oval;endFill=0;startSize=31;endSize=10;" edge="1" parent="1" source="43" target="10">
                    <mxGeometry relative="1" as="geometry"/>
                </mxCell>
                <mxCell id="45" style="edgeStyle=orthogonalEdgeStyle;html=1;exitX=0;exitY=0.25;exitDx=0;exitDy=0;entryX=1;entryY=0.5;entryDx=0;entryDy=0;startArrow=none;startFill=0;endArrow=oval;endFill=0;startSize=31;endSize=10;" edge="1" parent="1" source="43" target="23">
                    <mxGeometry relative="1" as="geometry"/>
                </mxCell>
                <mxCell id="46" style="edgeStyle=orthogonalEdgeStyle;html=1;exitX=0;exitY=0.75;exitDx=0;exitDy=0;entryX=1;entryY=0.5;entryDx=0;entryDy=0;startArrow=none;startFill=0;endArrow=oval;endFill=0;startSize=31;endSize=10;" edge="1" parent="1" source="43" target="27">
                    <mxGeometry relative="1" as="geometry"/>
                </mxCell>
                <mxCell id="47" style="edgeStyle=orthogonalEdgeStyle;html=1;exitX=0;exitY=1;exitDx=0;exitDy=0;entryX=1;entryY=0.5;entryDx=0;entryDy=0;startArrow=none;startFill=0;endArrow=oval;endFill=0;startSize=31;endSize=10;" edge="1" parent="1" source="43" target="28">
                    <mxGeometry relative="1" as="geometry"/>
                </mxCell>
                <mxCell id="43" value="" style="shape=image;verticalLabelPosition=bottom;labelBackgroundColor=default;verticalAlign=top;aspect=fixed;imageAspect=0;image=data:image/png,iVBORw0KGgoAAAANSUhEUgAAAQwAAAD5CAYAAADSpAuNAAAABHNCSVQICAgIfAhkiAAAABl0RVh0U29mdHdhcmUAZ25vbWUtc2NyZWVuc2hvdO8Dvz4AAAAmdEVYdENyZWF0aW9uIFRpbWUAbWnpIDMwIG9jdCAyMDI0IDE3OjI4OjU4f+OgPAAAIABJREFUeJzsvXecVNX9//+8d3rZ2dm+7LLA7rJ0UFhKaKIQFU2ISLAFK2Lno4mxxOTj1xYTNUaxd+xRpBkEkWYoIqI06YFdet3G7sxOb78/+J2bO8MuDGj8WM7z8djHTrn33FNf533e533nKolEIoFEIpGkgfp/nQGJRPLDQQqGRCJJG2M6B8lVi0Tyw0VRFBKJBIqifPO0pA9DIvlp8G2IxnEtDI/HQywWIxaLfaOLSCSS/xsURUFVVQwGAy6X6xuLxjGCIRIMBoNs3LgRl8tFJBJBUZRvxaSRSCTfDYlEgkQigdlsxuv10rlzZ7Kysr6RaByzJBGJeb1etm7dSiQSwWw2fysFkEgk3y3xeJxIJILBYEBVVTp16oTb7T5l0Wh1SSISUxSF0tJSFEUhHo9LK0Mi+QGQSCRQVRW/38+OHTtIJBIYDAaqq6spLy/H7XafUron3CVJJBLEYrFv1dMqkUj+u4iFQzweB9D8GKFQiOrqasrKyk5peSLjMCSSHznC2igpKcFkMmmiceTIEc0QSJcTWhjC2alfokgkku8/+nGbSCQwmUyUlJSwZ88ewuEw1dXVdOzY8aR8Gt+KhaE3f2KxmPa+pf9imzb1uxOlnUgktPRjsRjxePyEaaRet6XjT3TM8c6VfDOEF1+8Fm2bWt8t1Xlqv2itbfV9U5jnx/v8x0w0GtVEw2AwEA6H2b59+0lZGictGC01lLiYxWIhIyMDo9GYpFh6/4fT6cTpdKbtE9F/b7VayczMJDMzE4fDgcFgOG4aqddt6XhxjKqqOJ1OVFXVjhEdqaUyfd9oaYC1NthaO+e7FkUxAyYSCYxGIy6XC7fbjcvl0nbmWtvO17et3W5vsX306dvtdsxmc9Ix8Xgcm82GzWb7XrftqZLaniaTCUVRsNlslJWVYbVaiUajJyUahvvvv//+1A8VRSEcDlNXV0c8Hic7O7vFwW8ymTAYDESjUcxmMxs2bOCzzz7DbreTnZ1NNBpNSjMajTJv3jx27NhB27ZttQGceu2WMm00GtmwYQNz585lzZo11NfX43a7sVqtSY3dUnrhcJhFixZpQiOEQFzLYDDQ1NTEsmXLyMvLw2KxEIvFMJvNqKrKRx99hMVi0cr0bXQskU99eVsqe0vfH+8zVVVRVVXb0WrpHHGe/jsx4NIZOK3lPfU7/fvW8i/iBGpqapg7dy6fffYZu3btwmKxaIFGx6ubSCTC0qVLMRqNZGVlaX1Of7zBYGDp0qWEw2Hy8vKIRCIAuFwuvvjiC6qqqigrK/vW2vb7gqqqhMNhmpqaUBSFUCiE1+vF4/Hg9/uJx+MEg0Gt/wvxPG6aJ5MB/UyUSCTYt28fu3fv1hp96dKlTJo0iW3btmE0GjXTMh6PYzKZ2Lt3L88++yyTJk3i0KFDmEympOWFMA/14hSPxzGbzSxcuJCHH36YgwcP0tTUxMyZM1mxYgUWi+WY88V7MYBCoRCTJ0/m4MGDmEwm7RrxeJxoNIrBYODw4cO88cYbNDU1oaoqdrsdj8fDI488wmuvvYbH4zlG4FqazVv7a+14fZ71g1wcoy+PoKVzRHp+v5/6+vqkpZQoq76e9HmLxWLU1tYSDoeTln6pM5Roq9byL64l8pP6nWhTvWgYDAYOHjzIfffdx4oVKwgGg3z11VdMmTIlqS+0lH8xIN5//32qq6sxm81J9SGWN4qiMHXqVNauXYvRaMRgMGCz2Xj//fd56KGH2Lp1K0ajUSvbjwG9+MdiMSKRCLW1tdTU1FBTU8OhQ4dobGwkFosRDocxm83s379fO7c10rr5TCAunpeXx8yZM5k0aRI33HADp512GsFgEKPRiM1mw2AwYLfbicViGI1GgsEg4XCY9u3b86c//Qmj0UhRURHhcBir1YrJZNI6QDQaJRQKJXWozMxM5s2bx+jRo7nxxhsBCAQChEIhAoGAtoxwOByo6lENjEQiBAIBLd9Wq/WY5YbZbMZsNmO1WnG5XFitVuCo6bZmzRpefPFFysrKKC0tTbJKjtdIrdWb/rVYvolzhJUUiUQIBoPajC9E12azEQ6HCQaDmnltMBg060mUs6CggD//+c/Y7XZuv/12PB6Pdo4op+hIPp+PWCxGTk4OX3zxBW+88QZ///vfsdls+P1+rFYrgUAgaUs9IyODSCSitavImxicfr8/SbxS2yMYDKKqapKg5OfnM2/ePIxGI88//zxGo1FrO72AWSwWrFarJhZ+v19rS4vFkrTcFP9dLhcAZrNZqzODwYDX6+Wxxx7D6/XSu3dvDAbDCdv2h4Yoi9lsprCwkFgsprVF6nF+v59oNKr1/+NxUoKRSBz1tG7dupVVq1aRSCTYvXs3H3/8Mb169cJgMBCPx1FVldWrV7Nq1SpcLhdnnHEGDoeDcDiMw+HQTEmHw8HevXtZtWoVPp+PvLw8OnfuTNu2bbV0/H4/M2bMoKGhgYaGBj788EMCgQAmk4m2bdvSuXNnLRr1yy+/ZMuWLSiKQr9+/SgvLz/GoSXEwmazcfjwYVatWoXf7ycUCmnHGY1GampqGD16NIMGDeKuu+5KaoTURhECIMx6PfF4XEtbL1S7du3SBvKyZcsA6N+/P6WlpcRiMerq6qirqyMrK4tPP/2Uzp07U1lZCcCaNWvYuHEjZrOZyspKysrKCAQCLF68mG3btuF2u5k2bRq5ubn06tULVVU5dOgQX3zxBc3NzVRUVFBZWYnFYmHTpk0sXryYxsZGPvroI7KzsyktLaW6upqePXvicrmIRqMYjUaWL19OYWEhdrudhoYGsrKyWLJkCaFQiNNPP51u3boRDocBsFgsfPXVV2zevBmAfv360alTp2Mmg+XLl7Ny5UpMJhNz5szB7/djNBrJyMjg9NNP16yBffv2sXLlSjweDx07dqR///7aBJBqvYhl8uLFi9mzZw8ulwuPx6PFIng8HgoLC/nDH/7A008/TTgc/lGJBSTXRWFhYYvHiPF88OBBPB5PWumelGDE43FcLhfvv/8+CxcupLi4mIULF/L666/z4osvYjKZMJvNzJ49m+3bt2uz/65du7j11lvxeDw8+OCD2mwSDAb585//zL59+3C5XNTW1jJ06FAeeOAB/H4/JpOJQCDAsmXLCIVCbNmyhf3796OqKlu3bqV379488MADALz33nvMmTOHvn370tjYyOzZs7n77ruprKykqakpqQw2m42NGzfy5JNP4na7KS4uZufOncRiMQwGA4FAgBEjRmC329m1a1dSA6RWuKj0adOm8eWXXyY50EKhEKWlpVx55ZXaDBiPx7FarWzYsIGZM2dSXFyMw+GgsbGRGTNmcPfddzN06FDWr1/PE088QVlZGbW1tTidToYNG8brr7/Ohx9+SJ8+ffB6vUyfPp3/+Z//YciQISxbtowjR44QiUT4+OOPqaysZNCgQaxdu5bHHnuMwsJC8vPz+eSTT/jZz37G7bffTlVVFRs3biQajbJkyRLy8/MpLi7m+eef5+KLL+biiy8mHo9z5MgRJk2axB133IHZbObJJ58kLy+PjIwMotEo06ZNY+LEiYwYMQKAd999l3nz5nH66afj8XiYM2cOf/jDHzjttNO0fmEwGFi7di27d+9GVVXmz59PIpHA4/FQU1PDiy++SEFBAV9//TV/+9vfKCkpITc3l+eee47t27czYcKEJMGIx+MYDAaCwSCPP/44e/bsoUuXLvh8PmpqarQYhOLiYm644QbNqnM4HCd09v3Q0Ftbel9i6jFA0jLuRJyUYKiqis/n47LLLiORSLB48WLOP/98+vXrR7du3Vi3bh2xWIzm5mbuuece9u3bxwcffMD69etpbm7WHFMGgwGLxcLXX3/Nnj17GDp0KBMnTuTw4cNEo1HNrxCJRMjNzeXhhx/muuuu49JLL+UXv/gFiUSCJ598ksOHD2uz5Ny5c3nkkUfo0aMHAA888AALFy6kX79+SRWkqiqBQIDJkydz2mmnceedd2KxWFi7di0PPfSQVtGBQKDFdXdrFV9eXo7ZbMZkMmmfR6NRsrKyjlmSxONxnE4nNTU13HrrrQwdOpRwOMw999zDzJkzGTx4MHa7XROu888/n2AwyNatW/nwww+5+eabOe+880gkEjz11FO8/fbb9OrVi3vvvZd77rmHrKws7rrrLpqamggEArzzzjt06dKFe++9F6PRyJo1a/jf//1fBgwYwNixY3G5XLz99ts8/vjjWCwWVFXl5z//OcuXL2fUqFHYbDZWrFiB2+2msrKSjRs30tDQwMUXX8zYsWOJxWI88cQTfPDBB/z85z+nurqaBQsW8OCDD3LaaacB8OCDD/Lxxx/Tr18/bQkViUSYOHEiiqJQVVXFk08+STQaZd26dTzyyCOa8/aNN97g7LPP5uabbwZg8eLFvPDCC1x44YXacla0g9Vq5cMPP2T37t1MmjSJgoIC4vE4EydOJBwOo6oqsVgMj8ejWbvpOHp/aKQbN3WyMVYn7cOIRCJ06dKF0tJSPvnkE9q1a8fw4cMJh8PEYjGi0SijRo1i5MiR7Nmzh0WLFhEIBPD5fJpfQwyavLw8zGYz27dvZ86cOQwfPpySkhKam5u1gsTjcTweD/F4nEAggNfrJRaLEQwGtWVLVVUVqqry9ddf8+WXX2K1Wjly5Ah+vz/p1nyxBNi5cyc1NTXcdNNNBINBAoEA0Wg0yceh/zteZYo8tm3bluzs7Bb9JKnnqqpKMBikrKyMrl27UlNTg8vlYuDAgXz44Yeaf8HtdtOtWzeOHDmC3W5n+/btOJ1O+vTpQ11dHSaTiREjRrBo0SIOHDig+YUikQgej4dwOExzczMHDhxg1KhRxGIx6uvr6d69Ox06dGDz5s2MGDECn89HPB7XPOVms5kzzzyTRYsWUVVVRd++fVm9ejXdunXD6XQSDAZxu90MHDiQ+vp6zGYzQ4YMYcmSJQQCAc1aW79+PatXr8bpdFJXV5fkcxJ15/P5CAaDxGIxvF6vlmexDKqpqaG+vh6fz8e7775LNBqlqakJj8dDY2OjZm7r63zNmjWcccYZ5ObmUldXh9VqTfKtiDY4mYEiOcpJ+zAU5eit76FQKGnbRuzxqqqKzWbD5/NpjZ7qzQcIhUJ07tyZyy67jJkzZ/L6668zY8YMrrrqKkaNGkUgEEBRFO0uO/hPPDwk+w+EwOzdu1fLa15eHuXl5ZpACUQnBTQB01sFLZX5RDseJpOJf/7znyxevFgzb0U9de7cmd/97ndJOyypHmxRR2IHRzioxJ2Gol59Pp+2lS3SEc5cUV+irKKu/H4/qqpisVi0NW0sFsPlctHc3Kwdqz8nHA7TsWNHSktLWb58OT169GDbtm2MHz9eq0+xTS7KZTQatXYNBoNEo1EOHDhAIpGgtraW/Px8OnXqdEw9ioEr2jq1vf1+P0DSzg/Aueeei9vtPmYrVFi4mZmZ2hLzeJZha22r72OS/3DSFobo6GImNRgMuN1uzaMNaDO//viWXgNcc801nHvuucyfP5/p06cze/ZsBg8erO2Xiw5xvBne4XBgtVq57bbbtK0/k8lENBrVnHDiWL1nX3jtRTlaW8u1dG397BSNRrnsssu45JJLWjxOP6O2tE4UMR91dXXY7XZNyFLrXczuwskrLBVAM6/1x8diMS3upLm5WRML4fhr3769dqzIo/CzmEwmhg0bxrx58/jiiy9wOBx07tz5GAdhNBrF4XBQX1+PwWAgOzsbk8mE2+3m5ptv1paWZrOZWCxGIBDQdoDEDk5rbSuWbrFYjF/96lcMGjSIxsZGjEajtl0unJnCujAYDFit1qTy6rdMU/tfS0ihaJ1TivQUg0AEU82ZM4dDhw5pnVjfcfUzhjhPURTMZjOHDh3inXfewev10qNHD6xWqxZUs3PnTvbs2XNMdKZ+dhazcNeuXTly5AizZ8/WOtPhw4epra3VZhgxAC0WC7m5udjtdpYsWYLT6cRsNrNo0aIkAVGUo4FpJpNJK6t4rc+DeG02m7XAF/2fxWI5xvQVnVZYN9nZ2Rw4cID58+fTt29fTdCMRqN2bDAYpGvXrvj9fhYvXozb7cbhcLBw4ULcbjdFRUVEIhGMRiN+v1/bRszOzqZDhw7MnTuXUChEQUEB69evZ/fu3fTs2VPLg8/n07bDhcUyYMAAVFVl9uzZVFRUkJ2drVk8YnC63W5CoRDTp0+nsrISo9FIly5daGho4OOPP9asFtEeRqORxsZGNm/enBR3krpkENurwgk7bdo0GhsbMZlM+P1+9uzZo/VJMVmJSN2KigqWL1+Ox+OhoKCAtWvXUlVVlbStLNpTWDXidaq1IUnmpCwM+E/0WKdOnXA6nXzxxRd8/PHH3HfffZo3XXQqsVzwer3a/rnX69UG9bZt23jhhRd46623gKMzyrhx48jJyeH//b//h8vl4uGHHwagubk56Ze/gsGgFt/Rrl07LrvsMl599VWWLFmibdeOHz+evLw8bDYbhYWFPPXUUyxfvpwJEyZw6aWX8txzz1FVVUUkEiEvL4927dpRW1tLx44d2bFjB8888wx+v5+6ujqefPJJzGYz1113HZWVlcesxU8U9KOf1YTA7Nu3j3vvvZfs7Gy2bNlCx44dueCCCzT/THNzs2atBYNBioqKuPzyy3nrrbf46quviEQi7Nu3j1tvvRW73U4wGKRHjx68/vrr3H777eTk5HDTTTdx1VVX8de//pVbb72VoqIiNm3axMiRI+nVqxcej4fS0lJCoRD3338/NpuNyy+/nIqKCrKysqisrOTtt9/mscce08RcLBXuv/9+iouL2b59O5mZmVxxxRX4fD6tPSZPnsySJUtwuVzs37+fcePG8fOf/5wPPviA9957j6effprc3FwCgYAWwyGE1Ov1agP3mmuu4bHHHuOWW26htLSUvXv30rNnT6677jrsdjtt2rRh8uTJrFu3jquvvpoLL7yQ1atXc9ttt2kxCP369ePw4cOa4D/99NNs3rxZ648rVqzgjDPO4Morr9S2fqWlcSyt/uJWc3MzW7ZsIRqN0rFjx2PMOIPBwPr169m1axfZ2dl0794dn8/HwYMHKS0tJS8vj1AoRFVVFdFolM6dO2MwGLQ4iYqKCuLxOLt372b37t1EIhHat29P9+7dNQemyWSiW7duRKNR/v3vf1NQUEBubi6JRIK9e/cSiUTo2LEjkUgEi8XC9u3btfTLy8vp2LEjcLSD19bW8uWXX+J2uxkwYIB2/ObNm3G73QwaNIi9e/fidDrJz8+nsbGRbdu2aY7LaDRKLBbTZtpU30i6CP/BrFmz+PDDD7nwwgtpbm6mpKSE3r17a2k2Nzeze/duOnbsmBTNarFYqK6uZtOmTRgMBnr37k1xcTGBQECLP1i5ciX19fVUVFTQqVMnrFYrDQ0NrF27lqamJioqKujevbu2fDMajWzZsoUtW7aQm5tL7969sdlsuFwu5s2bx9SpU3n88ccxGAyYzWbWrVvHU089xcUXX4zf76egoIA+ffokWYgWi4Wqqiq2bt1KIpGgrKyMjh07YjKZ2L9/P7t27aJPnz7YbDb27NlDMBikoqJCm1R2795Nly5dUFUVs9lMfX0969ato7GxkaKiIrp166ZZQw0NDaxcuVJzvtrtdurr61m9ejWhUIgBAwZgMpmoqamhoqKCSCTC9u3baWxs1IKVgsEgBQUFaQfp/RjQxxw1Nzdjt9vp2rXrcZeJJy0Y+qWB8D4riqJtWYm9buF7EMeI9aqIVRdOOr3JLmLbAc18FGovOqPYUxbnichIEV+hX4KItESshLj5KBAIaMeLYCsR9yEcjUajUcu73nQWDr1T7UyxWIzMzExmzpzJggULmDRpkhYiL+oI0LaehbWhryMRHQtHzXHhgBa+CBH5qN9NMplM2uAQvgRIjjwVjkuxpWwwGLjvvvuoqKhgwoQJNDY24nQ6WbNmDc888wzPPfec5ngUOx36JZuoX3FNUT6x1BN5S/XHiLKLPOrzL+pHXA+OLl9E5KyITjWZTFofCYVC2mf6/qR3RAvLWXz/U+BUBOOklyT6xESDio6qdySKjihCeIX5rvfMi+/1iIEp0tYfpzcTRefS+xxSYyf0f/rOoL+GvsOI78VevdfrPab8qc7cU6k/8V/cDCSESu/RF97+lpzHYitYlDN1K1cfNi2+j0ajeDyeY/wo+gEIaGHYBw8e5NFHH0VVVX71q19puy3iGLH9KXwNwleV2j9aao9IJKI5T8WAFnXbUtlVVU06R/QncZ3U9PTH66+t91GJOkrte+J78f6nSmt1cNKC0dJg0Q/k1l4L9FuCJ9p90JMaB99SXHxLja0XBP13+gHV0vX0eW2JU+1MYibt2bMnubm5miNVP4DFa/319YO7pbKIsrbkYNU7iVtKT18W/TbpyJEj6du3L5mZmZoFGYlEKCkp4YYbbsBut2vn6K9zonyK9y21g/hOX3b9hJR6bmvXaa299e3QGj9loRDo6yCpX53qkkRy6ui99CfaWvy/QCxHbDZb0g1o+u/MZvP3Mu+S9EldkjgcDrp06UIikdBuAnU6nUnnpPUjwPoZTPLtIExmffzD9wkRPp06m4vvfD7f9zbvkvRI3ULWO3u3b9+u3U1eVFSk3fmb1m96ftN1u+SHyfHM9uN9J/lhIKzF1AkB0H7mIJFIsG3bNrp27YrD4UjPh6GPq5CCIZH8OEgkkn+0Sj+2S0tLycnJ4cCBA0k7aMcVDKPRqP0kuUQi+XGiKEd/81b/2zGKcvQHiMRSRNCqXSl+11KEJ0skkh8voVBIE4fUHRI9x+yS6BGRgD+m3zqUSCTJ6IP3Tnjs8QRDIpFI9BzX1S21RCKR6DmuYEjfhUQi0SM30yUSSdpIwZBIJGkjBUMikaSNFAyJRJI2UjAkEknaSMGQSCRpIwVDIpGkjRQMiUSSNse9W1VGekokPx6+jUDM4wqGjPSUSCR6WhWMeDzOjh07tOdxgLQ4JJIfIiaTCaPRSHl5+TdO6xjB0P9kv9/vJxKJnPJDeyQSyf894XAYg8FAdXU15eXl3+iX81q1MBKJBOFwmEgkQm5urvyJPonkB4QYq+FwWHtQtlg1lJWVnXK6aTk9hWDon8AlkUi+v4hns/j9fmpra1EURXto2M6dOyktLdWOO5kxndZjBuSPAEskPyyEYIjHehoMBjIzM2loaADQLI2THc9pPWbgRE8Ik0gk3z/EuBU/sZmfn4+iKNTV1aEoyiktT2Tg1ndA6sOgUv/E5z9ETlS2H3r50iG1/PrXrdVN6nmtnZPudY6HWB3E43Hy8/PJzc3F4/Hg8XhO+okA34lgtFbAH3Mngv+UNVXpVVXVHl78fVvqpdt5BS0951SUDY5uz+ufuXoybX4qfea77mfH/Kp2K5a43lJPfR6uHv3T5Fp6Hq2+r7T0XNrW8qg/pqCggLy8PJqbm09aNE76Ycynil7lfipPzdI3kngquqqqNDc3E41GMZvNGI3GJGH5vqAXAGh9Kap/4LGiKFrcjqIo2O12jEZj0tPkT+baepFJfTJ8a+elnnO8vH9TUgeveJC1EEl9GVJJzZN4zmk4HMZkMmnptPZQZKPRSCwWO0ZQUtPU50F/fE5ODrFYjKamppNanpyyYLRUIalPTBefiWNMJpP2EN+Tie04kdoeT4XTTedE70+l04nzYrEYVquVHTt28MEHH7Bv3z4ikQhGo5Hf/OY3DBkyhEAgcNynq3+TvLf0XWvHi8+EmAUCgROmk0gc/Yn6mTNn8umnn2rHZWdnM3z4cIYMGUIkEjmmDMcrl0hXPLT6RPnQ591oNGI2mwkEAsf0zRO11anUbyKRwGazsXHjRhYvXsz111+PyWRCURSCwaAmpJMnT+bAgQPccsstFBYWas/WFeevXr2al156iT59+nDNNddo+RLE43EcDgdz586lpqaGq666SnvGbUvl0+dXbKmm1nE8HicQCGAwGLTdE31dpKZ7ylO9qCj9A1z16ioKIZ5roqoqhw4d4p133mHJkiWaQsbj8STlE0qojy4VaegLIN7rr6efqVNNapGG/njxud6sE0KmT098rp85Wsu3/ulR4jy73c769ev54x//SDwe56qrruL2229nzJgxFBYWamXVW1/iM31ZTpT31r7Xn6s3mVs6Ph6PYzAY2L17N3PnziUajSY9l0bkS9SP+M5oNLJp0yYsFgu33norV111FYWFhTzxxBPMmzdPezCWqDN9R9SnqW8jg8HAwYMHmT17NpFIJCkf+uVdat3U1dUxa9YsfD5fUh9KXa6Iz1qqX/0Mr+8bLV1TBDq+8cYb5OfnYzabWb9+Pa+++ip79+7FYDAQi8Woqqpiw4YNBIPBY9JRVRWv18v+/fupqalJ6meqqmrHRiIRKioqWLhwIV9++SUOhyOpbKnjUywPRd2LP2EJ6seXqC9BSyJ0ShZGIpHAarVqCYpoUDj6EFeApqYmLBYLdrsdr9dLbm4uCxcu5IknnuCWW24hKyuLuro6bTYIhUJEo1FUVcVut5NIJAgEAtr3YnsoFAqhKAo2my1JIBobG8nIyNAGcqopZ7VatYozGo00NjZisVgwm82Ew+EkC8jn8xGJRHC5XEQiEQAcDgfRaJRQKKSlZzAYNGvJaDTicDi0p7KLAWkwGPD5fLz00kv079+fP/7xj4TDYWKxGN27d9eON5vNWK1Wrd4sFkuSKW+1WrU8NjU1aRZAKBTSyqmve4fDgaqqhEIhra1E/YmOKI73eDw4nU4URcHn85Gbm8u8efOYPXs2o0aNSupMGRkZhMNhfD4fLpdLqxOxdVdcXMzpp5+O1+vlzDPPRFEUPvroI0aMGIHD4dDKEw6HtQHpdDoJh8OEw2FcLhfBYJBgMEhubi4rVqzgvffeY9SoUdpyTrRHJBIhGAzicrkIh8MEAgFyc3PZunUrb775Jueccw5OpxOv14vNZiMcDmv9KJErYWApAAAgAElEQVRIYLfbtb5rsVi0PuPz+XA6ncRiMa1siqKQkZFBKBTC7/eTmZmp5TkjI4O5c+cSDAb59a9/jaqqTJs2jWXLljFs2DCtTKKNbTYbVquVmpoaMjMzSSQS+Hw+hgwZQp8+fbBarVqbWq1WvF4viURC64/du3dn2LBhzJgxg8rKyhaXa3pLsby8vMUYKmGN1dfXEwqFMJvN2ucA1dXVmpVmMpkoKys7NcFQFIWXXnqJWCxGz549ee+99xg4cCDjx49nyZIlzJkzh9raWqxWK8OHD2fs2LF8+OGHTJs2jdLSUlauXMm6deu48sorqampYe7cuVx22WUMHjyY/fv38+qrr6IoCvfccw/r1q3jnXfe4dJLL2XZsmUcOHCAu+66izfeeIPc3Fx69+7NlClT8Hq9dOjQgWuuuYbMzMykmd5sNjN16lS2bdvGhRdeyJw5c9i1axcZGRlceeWVdOnShXg8Tm1tLdOmTWPLli2akl977bVs27aNDz74gP79+zNmzBgsFgsffPABGzZs4IYbbqBdu3Zs3bqVyZMnM2DAAEaPHk0gEADAbrfz6aefUlNTwz333EMwGNSWH2Lwms1mDh8+zJtvvsnhw4dJJBL87Gc/Y8yYMaiqSiAQYPLkyfTv359PPvmEw4cPoygK48aNo7KyklAohMViYdmyZcycOVObiX79618zcuRIXnnlFQoLC1m9ejW7d+/m3nvvpW3btixevJhZs2YRi8UwGAxceumlDBo0iDfeeIM5c+aQSCS4+eabKSoq4sYbb8TpdDJlyhQ+++wzEokEmZmZXH311ZSUlGj1LcTE6/Wiqirl5eV8/vnnBAIB3n77bcrLy5k1axZOp5M//vGPqKrKBx98wLJly0gkEuTn53P55ZdTXl7OlClTmDp1Kqqqcuutt5KRkcFdd92F3W7no48+YsGCBVo+xo0bR/fu3fn444959913sVgs3HXXXTgcDq6++mreffddLrzwQnr16kUwGMRgMPD000/Ts2dPBgwYwOuvv05FRQULFiygoaEBl8vFFVdcQadOnbQJ4B//+AcrVqwgHo+Tk5PD+PHjKSwsJBKJsHjxYoYMGYLJZGLSpEns2LGDwsJCnnvuOXJzc7niiiu02X79+vW8+OKL1NfXU1RUxPjx42nbti0bN27k3XffpaKigquvvpojR47w6quvsn79euLxOG63m9GjRzNkyBCGDRvGokWL2LFjB6Wlpdqk15LTtbUnmgnBEEtPgZhYa2pqKCws1CaFUCh0akuSRCLBrl27mDt3Li+88AIHDhzA4XCwevVq/vrXv1JdXU3Hjh0JhUI899xzfPHFF4RCIRoaGlAUhebmZvbs2UM4HGb//v2sXLmS+vp6bcb8+uuvWb9+Paqq0tDQwLp163jmmWdYtmyZptTbtm1jzpw5/P3vf6e2tpa6ujrmz5/PvHnzsNlsSeamoijs3buXZcuW8cgjj7B582Y8Hg9r1qxhypQpxONxgsEgTz75JLNmzSIzM5M2bdowf/58XnnlFdxuN1u2bGHevHkEg0F8Ph+LFy9myZIlrFu3DofDwaZNm1i6dClZWVlJvohEIsHOnTvJzc0lJyeHSCSStENiNBoJBoP87W9/w+/3c+211zJq1Cj++c9/MnXqVM0K+Oqrr3j22WcpLy/n+uuvJy8vjxdeeIHm5mYcDgfr1q3jiSeeoLKykgkTJvDLX/6SnJwcFEVh9+7dvPLKK7Rr146xY8eSk5PDqlWrePHFFxk6dCg33ngjFRUVPP300xw6dIjKykq6deuG1Wrl/PPPZ9CgQWRkZDBr1iw++ugjRo8ezQ033ICiKDz//PNEIhFtOWEymXA6nbjdbux2O6tWrSIvLw+Hw8GXX37Je++9x9ChQzn33HNxOBzMmjWLadOmMWrUKK699lqCwSB//etfaWpqomfPnvTu3RuDwcDIkSM566yzcDgcLFy4kNdff51zzjmHCRMmYLVaefjhh6mpqaFr1670798fRVE4++yzGTFiBMXFxTQ2NjJv3jyt7mtra/nss88oKCjQ6veVV15hwIABXH/99SiKwuOPP05TUxMZGRlMmzaNefPmMXbsWK677jqCwSDPPfccZrOZhoYG9u/fz2mnnUYkEqG+vl5bdtTW1nLw4EHNeg6FQrz55pscOHCA+vp6/vWvf/Hxxx9jsVjweDwsX76cLVu24HQ6mT9/PtOmTcNkMtGlSxdqamrweDwAFBUVkZOTw6ZNmzCbzcdYGPrll3453tJfqv9GLGVOO+003G43ubm5tG/fHpfLdepOT7vdTiwW4+yzz2b06NFYLBaefPJJIpEIt9xyC7/4xS/4/PPPueuuu/jss8/405/+RCQS4ZlnnuHKK6/UFHf9+vVHM/L/7xaIJYkws0wmE1arlaysLO6//36ys7Mxm804HA4OHz7MVVddxdixY5kyZQovvfQSBw4c0MxOvfPMbrcDcPrpp/O73/2OLVu2cP/993Po0CFCoRAbN25k7dq1DBs2jAceeACA2267jQ0bNvCb3/yGAQMG8OWXX7Jv3z7i8Th1dXXk5+ezcuVKRo0axbZt2ygrK9OWGfprBwIB7HY7NpstaQkBR9V/5cqV1NTU8OCDD5KVlYXNZiMajfKPf/yD0aNHaw60s88+m2uvvZZoNEpmZiZ33HEHNTU15OfnM3v2bPr37891112H3++nV69eBAIBTaD69OnDddddpzkPZ82axdChQ7n88svx+XxUVFTwxRdfsGXLFs477zz+/e9/c/DgQX75y1+SSCTwer3MnTuXcePGMWrUKEKhEDabjYceeoiDBw+SnZ2N0Wjk4MGDLFmyhMbGRr766ivWrFnDnXfeqQ3U4cOHa846r9fLvHnzuPTSSxk9ejTBYJDS0lJuvvlmli5dyiWXXMLu3bvZuHEjv/jFL7RQ5zlz5jBq1CguueQSfD4fnTt35qabbmLBggVMmDCBgQMH8vnnn3Puuedqk8eoUaN48803OXjwIO3ateOTTz6hXbt2VFRUEAwGicfjjBw5kksuuYRQKERhYSETJ05k+/btuFwuFi1axFVXXcW5555LNBrFZrNx77334vF42Ldvn9ZHE4kEd999N48++qg2gXbr1g2fz0csFiMSiXDZZZdxxRVX8OGHH/Lss89y4MABwuEwRqORjIwMbDYbiqJw+PBhVFWlf//+XHvttdqyy+fzYbPZaNOmDTt37mxxp60lS6Ml9OMk9ViHw4HD4Uj67JSXJGLdPnjwYPLz86mrq6Ourg6Hw8GCBQtYvnw5Xq+XSCRCXV0d8B8nD6B1oFSHVOrDn8W6u0uXLnTt2pXm5mat4jMyMujbty+KolBeXo7JZCIUCml+B30awik5YMAALBYLbdu2xeVyEQgEiMfjHDx4EJPJRE1NDffffz8ABw4coKmpCVVV6dmzJ4sXL2bjxo34/X5ycnIoKChg06ZN/Pvf/2b79u106tSJ3NxcbckhHFY5OTn4/X7NFBYNK9aVe/fupbCwELvdTlNTE5FIhA4dOqAoCjU1NZSUlKAoCsXFxXi93iSfh6iPQ4cOcfbZZ+P3+5OcV0LYc3Nz8fl8+Hw+LBYLjY2N1NbWcscddxCNRjEYDJrARCIR/H4/8XicxsZGzGYzdXV1xONx5s2bx/Lly0kkEtoaPhqNAkdvo96zZw9TpkwBIC8vj/vuu4/u3bsTDAZRVZXMzEyampoIh8N4vV58Ph9lZWU0NTVpwtq2bVv27t2r+U4SiYSWj0AgQGNjIxUVFTQ1NeHz+cjIyKC0tJQ9e/YQj8dpbm4mkUhodamqKn379uWdd95hzZo1lJaWsn79erp27YrD4aC5uRlFUSgqKsLv99PU1ITb7SY7O5uGhgY8Hg8+n4+PP/6YRYsWARAMBjWL2OPxaBOb3uEvXhsMBuCo09RmszFw4EBUVaWsrEyrd0h2zkYiEfr06cOnn37KlClTWLduHeeccw7Dhg3TLDmXy0V9ff1/7W5yvQCJ16fs9BQIZ6XwphsMBrKyslCUo/vwY8aMoWPHjkm7KWIw6XcAhBlvNpuP2T8XAhUKhY7xsodCoSTTShzfkoNHURTN2y6sEPGd2OFwOp2aE23w4ME4nU4yMjLo1asXTqeTbdu2sW/fPnr37k2vXr1YsWIF8+fPJxAIcPrpp2udQ19PRUVF1NbWUl9fT3FxcZKg6L3kqWVO3cYTA1tcQ19/sVgsaXtNCJK+/oS3HY46qnv16sWQIUO0rb8xY8bQtm1b7Tqp+YjFYgwZMoSKigqtDDabLWmd26dPH+68806CwSBOp1Nb7onJQZ+P1J0bff/QvxZ5aKm/iHNbO0fcT5Gdnc2AAQNYvnw5Q4YMYffu3Vx00UWaU1PUib6+RKyMuOawYcMoLi7WLEiLxUJeXh7hcDgpL/p+CMk7XuI6YrdC77DUlyUYDDJgwADuuOMOZs+ezZYtW9i4cSM+n4/Ro0cn7eak9vFvi9R2gW9gYYg/cdusy+XC7Xazc+dORo0aRZ8+fQA0Z4l+meDz+TRPsPDMHj58GIvFQlVVFY2NjeTm5h4jAKnmU0udC1oOqW3tfPHXpk0bQqEQHTp04Pe//z1wdICGw2FCoRBFRUVUVFSwdetWQqEQAwYMoKysjDZt2rBixQptzSc6k8hPIBCge/fuZGZmMm3aNM08F53FbDZTVFTE3LlzCQQCmklaW1urWQZi/asfMPqymEwmsrOzqaqqwmq1ajEe0Wj0mLILJ7Db7SaRSDBw4EBtN0pRFI4cOaKJuaqq2m6Q8Ic4nU4GDhyI3+/HZDIRj8dpampKshwtFguRSESzdIRVpR/I8XicjIwMrFYru3fvZsCAAaiqSjgcpra2lgEDBhzjuDObzVoeduzYwYgRI7T6OHToEP369Us6x2w2Y7PZ8Pv9RKNRhg0bxlNPPcWCBQvIz8+nffv2mkNT7HxZLBbcbjdVVVV4vV6Ki4txOBxYLBYyMjIYMmQIfr8fs9msTT52u10TTGHCizRFm4q6aK0PttTXg8EgZ5xxBiNHjmTGjBlMmjSJVatWMXr0aOLxOH6/n4yMjKT6/W9zyj6MSCSize6iEw4dOpSVK1fy0EMPMXjwYCKRCJs2bWLChAkMHToUi8WC0WhkxYoVVFVVMWbMGDp06ICqqnzyySds3rxZWw82NzdrW2/BYDBpO0yYw2KLU3RAsRxJdeAoytHAGbFWFd+HQiHNrO7RowedOnVixowZ1NbWUlxczPr16+nYsSPXX3+9ZmW89dZb9OrViw4dOpCVlUXv3r2ZPn06Z555puYxT71udnY211xzDY899hjhcJiRI0ficrnYv38/NpuN/v37849//INnn32Wyy+/HK/Xy5tvvsnAgQPJzs6msbFR65z6DiYsLoDhw4fz1FNP0blzZyorK9m3b582KwrBFiQSCUaOHMnjjz9OSUkJvXr1orGxkT179jB06FDsdjsZGRns37+frVu3AlBeXs5ZZ53Fa6+9hsPhoKSkhP379+PxeBg2bBiAdg1h8aWas2I7WdRLZmYmZ5xxBu+++y5t2rShqKiImTNnEgqFGDhwIMFgkIyMDI4cOcL69evJyMigbdu2nH322bz77rt06NCBsrIy5s+fT01NDWeccQbBYFBbZnz99dcUFhaSkZFBZmYmnTp1on379kydOpWLLroIu92u3fKtqipbtmzRljovvvgi3bp105a6Q4YM4YUXXsBisdCmTRv27NlDMBhkxIgRFBUV4fP5tIlOLBfD4TCvv/46c+bM4bLLLtNEoLU+K94L/9Dbb7/NypUr6du3L/v27dN8K2IZU19fT+/evY/x2f03OWXByMvLo6SkRLMQ/H4/w4YNw+PxMHfuXP71r39hNBopLS3F7Xbj8/no06cPAwYMYMeOHezbt4/Dhw9z3nnncdZZZ7F582b27t3L2LFjsVqtzJw5E6/Xi9PppF27dmRlZSV1wsLCQmw2G0ajUQu7Likp0SwTfeUlEgmysrJo37695gRTVZWioiJtIGZlZXHbbbfx1ltvsXHjRjZt2kRGRgbt27fXBkBlZSX/+te/6NevH1lZWUQiEQYPHszKlSvp06ePFnOiXxoIR93gwYN54IEHeO+993jiiSewWCzE43HGjBmjmZ6vvfYaDz/8MPF4nJ49e3LFFVcc3cpSVa28+qCmoqIibDYbgUCAM844g4aGBs2bH41GGTVqFHA0DFjUnzB3Bw4cyLXXXsuMGTP45JNPiEajVFZWauHJPXr0oH379jz++ONkZWXx29/+lksvvRS/388rr7yC0+kkGo1yzjnnaMuLnJycJB9NqjOtsLBQCzQS1tfFF19MKBTi+eef1+JP7rzzTrKzs2lubqZz58506dKFZ555huzsbG688UYuuOACPB4Pr732mhZf8/vf/562bdtq2+t9+vTh5Zdfxu12M378eLKzs1EUhYEDB7Jy5Up69OihiVcicTRSdenSpWzevFlzpI4fP14T5t/85jfEYjGef/55Lf7kl7/8JdFolKKiIpxOJ9u3b6dz585Eo1GGDx9OdXU1jY2N+P1+wuEw+fn5eDwerc+azWZKSkrIz88nHo9jtVopKSkhLy+PSCSi9ae5c+eiKApnnXUWY8eO1UK6Dx48yBVXXPGd/vyEkkix38VFm5ub2bJlC9FolI4dOx6TIb1pqTenRMBRY2Oj5g+IxWJajHw0GqW2tpaMjIykQJ7a2lpcLhdOp1MLI9abxvr3LV2/teNEmfSRp6kdWpwjBrH4zQDh+RdbZGKGMJlMSQNDbPWmBtDoX4sOAdDY2EggENB2fETQjNjuM5vNZGVlaRZE6nJEX379EkXU/ZEjR8jOzsZisWjhxyIPeuvLarVq290ZGRlkZGRoVpjRaCQSiXDkyBGysrI0n4YIJPJ4POTk5GCxWJIiF/XXOaazpeRX+LwsFgtNTU34/X7y8/MBkoLBotEoDQ0NuN1ujEajlg9x81ReXp4WRCf6gWjHjIwMLBYL0WiU3Nxcpk+fzqJFi3jkkUe0HaRQKMRdd93F2LFj6du3r3asPtBLVVUsFotW9tzcXC1kPSMjg9dee42tW7fy2GOP0dzcjNlsxuv10tzcTG5ubtKy4Xh9Vv9eLHtEyEFOTg7RaBSn08n06dNZunQpf/nLX46J2E0XEYdRU1NDc3Mzdrudrl27Hld4TtnC0O9kQPKazWAwUFBQQCwW07bx9D/mUVRUpEVkCoTKiuP1aaaGSYvCpl67pePE+9SdF/3gA7Q9ckU5eg8EHDWxhZddXDM1wrS1z/QDWpRfdGjhSBVCKtbu4tqJRAK/35/UgVIdaamf6eteOCH1Eaf64/THq6pKXl6etiYW1xTBXCItcS2xfi8oKCAajSbdA5N6HX19t/S9GDx+vx+r1YrdbtcCkPQh8sLC0ofeCx9KXl7eMe0kBl9+fn5S+PPnn3/OlClTGDdunCbUon7F8rewsJCGhoakuhBpirKLdEV7hsNhzjnnHJYsWcLy5csZOHAgPp8Ph8OhWSMi36l99HjvRfvpRdRgMFBfX8+8efO48MILsdlsmlX7XfCtXCXVaaNvgNTZVnyX6jkWlZoa9PRdoVdVseuTWjZIvl27pc9a8vrrxQTQPPCpfhZxbf022cnUgbiWsNBaOz+1rUTdt9RW+rTEOfF4vMWbyU4WfT7EzpU+X6n5SBX9E50j6tJkMnH48GFefPFFfvazn3HmmWfi9/uTnLBt2rTR4mRS66KlfOonhVAoRNu2bRkzZgzz58/XxFZMCKdSP/r20/dHETncvn17RowYQXNzc6s3n/03OOUliUTyQ0DvfA4EAmRlZSWJtd7aMplM2q3l6fTz1EkikUjg8XhwuVzaMd/meBGWl8fj0XaA9OEBJ3ut73RJIpH8EBAD2Wg04na7k2It4D+D3ul0tuj/Sidt/f/s7Oykpfa3XRZxT4lY0n9XSxFBWj8CfDzzViL5ISCWNXDsMlOY/S19l27acOx28n+L1spxsoixfTLjO60fARb3MnwXlSGRSL4bEomj92qlRs0ejxM+WzWRSFBTU/Pt5FAikXyvEHFCqZsNJ+3DUBQFs9mMwWDA6/VKy0Ii+REiliRZWVnaPTHH84scIxhCGER4sP6nvCQSyY+TaDRKcXHxCY87ZltVIpFIWiOtZ6tKJJIfP9+K01MikUgEP40nCkkkkm8FKRgSiSRtpGBIJJK0kYIhkUjSRgqGRCJJGykYEokkbaRgSCSStJGCIZFI0kYKhkQiSRspGBKJJG2kYEgkkrSRgiGRSNJGCoZEIkkbKRgSiSRtpGBIJJK0kYIhkUjSRgqGRCJJGykYEokkbaRgSCSStJGCIZFI0kYKhkQiSRspGBKJJG2kYEgkkrSRgiGRSNJGCoZEIkkbKRgSiSRtpGBIJJK0kYIhkUjSRgqGRCJJGykYEokkbaRgSCSStJGCIZFI0kYKhkQiSRspGBKJJG2kYEgkkrSRgiGRSNJGCoZEIkkbKRgSiSRtpGBIJJK0kYIhkUjSRgqGRCJJGykYEokkbaRgSCSStJGCIZFI0kYKhkQiSRspGBKJJG2kYEgkkrSRgiGRSNJGCoZEIkkbKRgSiSRtpGBIJJK0kYIhkUjSRgqGRCJJGykYEokkbaRgSCSStJGCIZFI0kYKhkQiSRspGBKJJG2kYEgkkrSRgiGRSNJGCoZEIkkbKRgSiSRtpGBIJJK0kYIhkUjSRgqGRCJJGykYEokkbaRgSCSStJGCIZFI0kYKhkQiSRspGBKJJG2kYEgkkrSRgiGRSNJGCoZEIkkbKRgSiSRtjMf7MpFIfFf5kEgk/2UURfnGaRxXML6NC0gkkh8PrQpGPB5nx44dRKNRYrEYIC0OieSHiMlkwmg0Ul5e/o3TOkYwEokEiqIQCATw+/1EIhFisZi0NiSSHyjhcBiDwUB1dTXl5eXaGD8VWrUwEokE4XCYSCRCbm4uiqJ8owtJJJLvDjFWw+Ew9fX1GAwGbdVQVlZ2yumm5fQUghGPx6VgSCQ/ABKJBKqq4vf7qa2tRVEU/H4/ADt37qS0tFQ77mTG9HEFQyQYiUSkhSGR/IAQghGNRlEUBYPBQGZmJg0NDQCapXGy4/mEgqEoivYn3n/fEJaQEDX96+9jfv8biLLqy6//XPLTQ4zbeDwOQH5+PoqiUFdXh6Iop7Q8+VEEbomKEYPjvyEWYiAmEgntT/95a+eknneic06Vlsqv/1zy00X0gXg8Tn5+Prm5uXg8HjweD9XV1SeV1g9eMPQDWAiE2NX5tgaKPh39tY4nSvoBG4/Hk479b8z4Iv14PE48HkdV1WPqRfLTJLUPFBQUkJeXR3Nz80mLxkkLRkuzZmufnej9NzlXvNfny2KxMHnyZD7//HOsVqtmiqWbZ32aqUIkBqPFYsFmsyWJxonOMZvN2O32VsvdWr0cr75a+jOZTOzdu5dHH32UQCCAwWA45jqSnw6pVmYsFiMajRKJRMjJycHtduP3+/F6vezYsSOtNE9aMPQDQVEUjEZj0mymz2g6hTEajUnrLKGE+vRb2qERx6uqSjwex+FwsHTpUtatW8dpp51GOBzWjjMYDNpx+jLor6OqalLaqqpqA07M2haLhS1btjB9+vSkPBzvHLPZzM6dO3n//fe1ALjj1Yne95Capj7vor4NBoP2fTgcpkOHDkQiEd59910sFosUi58weitbbKlWVVVpfx6Ph3g8TiAQwOfzsXPnTuD44/ekBEM/m1mtVmKxGLW1tQSDQaxWq+aNtVgsmogoioLJZMJkMmmeW5PJhNVqxWw2c+TIEaLRKFarVSuYqqrY7Xai0Sj19fXE43HNYhDnWywWjEYjfr8fVVUJh8PMmjWL888/n+LiYi1Nh8OBz+cjGAxit9uTxM1kMmG324GjwS0ifw6Hg1AoRHNzM3a7HZPJRCwWw+VysWHDBhYsWIDT6cRsNmtldDgcRCIRvF4vNpsNs9lMLBbD6XRSVVXFnDlzsNvt2jlmsznJAlAUBYvFojW0xWLB4XAQDofx+XzY7fYkMTKbzdhsNjwej/a9sLLGjRvH559/zp49e7TrSeH4aaGfUFRVJRaLJf2JCG795Obz+U6Y7gl3SfQIxTKbzXz22We89957NDU1oaoqFRUV/P73v2fu3LnMmTOHa665huHDh7N3716efvppEokEDz/8MKtXr2by5MlcdtllLFq0iOrqajIzMxkzZgxnnnkmsViMUCjEO++8w/LlywkEAmRnZ3PRRRcxYsQIVq9ezSuvvML555/Phg0b2Lp1Kw8++CB+v5/6+noGDhxILBZj8eLFNDQ0EAgE+Oqrr4jFYlRWVnLllVdisVg4cuQIb731Fp06dWLq1Kl06tSJP/3pT3i9Xl5++WU2btwIQF5eHtdeey3l5eU899xzzJ07F4vFwtVXX01xcTH/+7//SyQS4eWXX+arr77CYDCQkZHB+PHj6dGjB2+99RbTp0/HbDZz/fXXU1hYyLhx43jhhRe4+eab6dixI9FolHA4zJ///Gcuuugi4vE4K1asIC8vj4ULFxKNRqmoqGDChAk4nU6MRiM7d+7k1Vdfpbm5mVAoRO/evbnqqqsIBoOUl5eTl5fHZ599xhVXXEEoFMJoPKmmlvzA0Y/V8vLyFmOoEokERqOR+vp6QqEQZrP5hOmetIVhNBppamrijTfe4MCBAwwaNIiePXtqVkZdXR3btm3D4/FgMBiIRqPs2rWLXbt2oaoqPp+P6upqnnvuObxeL+Xl5ezdu5eXX36Z3bt3Y7fbefvtt3nnnXfIyspi2LBh1NfX88wzz7B3714tvcmTJ7Nu3Trcbjcul4t169ZRVFSE2+0mHo8TDod56623iEQi3H333Vx55ZXMnz+f2bNnY7PZUBSF1atXs3jxYq677jouvPBCDAYDr7/+Ol9//TW33HILd955J/F4nMcff5zm5mbOPfdc+vfvj9Pp5Evsy7sAACAASURBVKabbuLCCy/EYrHw/vvvs3TpUm644QbuvPNOMjMzefTRR6mrq+PMM8/krLPOwmw2M2HCBMaOHUv79u0JhUJ8+umnmqWxc+dOtm/fTmlpKeFwmBkzZrBz505++9vfcvPNN7N+/Xrefvtt7HY7Ho+HJ554gpKSEu6++24mTpzI559/zoIFCzTLo1OnTmzatIlYLKZZVZKfDvpwCOF3s1qtLf4Zjcak5fXxOOlpR1EUQqEQfr8fl8vFiBEjOP300/H7/Vrnt9lsmvmsKApWq1UzkYxGIwaDgbKyMh566CGMRiN/+ctfWLJkCTt27CA7O5vly5fTrl077rnnHjp06IDb7ebll19mx44duN1uDAYD+fn53HHHHeTm5pKVlUV1dTUFBQXYbDai0SiJRIK2bdsyfvx4rFYr3bt3Z+vWraxYsYJx48ahKApms5kLLriA8847D5/Px4EDB/jqq6+YOHEi/fr1IxqNcuutt/Lb3/6WVatWcf7559O+fXv27dvHoEGDiEajNDQ0sGzZMi6//HKGDBlCIBBg4sSJTJw4keXLl3PJJZfQsWNH1q5dq51jMpk477zzmDVrFnV1dbRp04aVK1fSo0cPCgoK2LBhAzk5OYwbN4527dphsVg4cOAAM2bMIBAI8PXXXxMIBLjmmmtQVZUOHTowePBgNmzYwK9+9SsURaFdu3Zs2rQJj8eDyWSSUbo/MVpyyrd0jH4HL51J5aSXJNFolJycHPr378+cOXO45557OO2007jgggsYNGiQlgG9s0VkTBCJRGjbti0GgwFFUejQoQMLFizA5/PR2NiIx+MhKyuLRx99FEVRaGxsJBAIaJ+HQiHat29PWVkZgUCAaDRKc3Mzbdq00awa4XMwm814PB4URaFt27asWrVK83uoqorFYqGxsRGAxsZG4vE4bdq0wePxEI1GyczMJDs7m0OHDhGPxwkGg8TjcbxeL4qi4PF4CIVClJSUaK/tdjsFBQUcOHBAcyolEgm8Xq9W/kGDBjF16lQ2b95Mbm4uW7du5cwzz8RgMBCJRMjMzMRqteL1egmHw+Tl5WnrTLHUevjhh4nFYhgMBg4fPkynTp20us7IyCAajRIKhaTz8ydIulv4JxuUeVKCod8uvO666ygpKWHJkiV88cUXVFVV0aFDB8z/X3tvHh9ldfb/v2efyUxmJgnJZCEL2TcgEARkE9wQccHHnQe1Lq3fVq0bdcMNLYog1ket1qot4AqU1oKiIkVUgmELm0BYwhISCAGyTDL7TOb3B79zes8kIKBPH2vn83rxIjNz32c/17m2c116vVROilNcyR6JMoSiRaPR4Pf7JScCx4mM1Wqlb9++BAIB9Ho9I0eOpG/fvhw7dkwqcYSiUpQV7d3Y1dUVcdPW5/Oh0WjQ6/V0dnbKd8XFHPFuT30W/VFaU3oyyyonQvmOcmICgQAOh4OKigqqqqro06cPbW1tDBo0CJ/PJy06wqqiVqsJBAKo1Wr0er00i9122234fD5Zts1mw+/3o9PpZDtjhCKGHxKnzWEILiMUCjFp0iSuuOIKnnrqKVauXMn+/fuxWq0ANDY2olKp+Pbbbzl69CgpKSkRZkNhQWhqamLbtm0YjUZSU1Ox2WzYbDYCgQDXXnstSUlJhEIhnE4ncXFxHDp0SGp+hWwuLApOpzNCZtdoNFgsFmm52bx5M9nZ2ZKoCQ5HtCcxMRG1Ws3evXspLS3F5/Nx8OBBWltbSUtLiyB8Qg+SkJCA0Whk9+7dDB48GLfbjdPppLm5mfPOOy+Cagt50eVy0dXVxejRo5kzZw7Lli0jPz+f5ORkgsEgcJxIWCwWzGYzcXFxbN26FbvdTkJCAg6Hg7a2NtLS0khKSsLv90uLkeCeOjo60Ov10rqkHPsYYjhTnDaHodVqaW1tZerUqVitVtLT09m1axdWq5VevXrJhfrpp5+ybt06nE4ndrud1tZWvF4vAAaDgfXr1/PAAw/Q0tJCbW0tZ599NgUFBZjNZkaOHMn8+fO58847KS0tpaGhAY/Hw4wZM1CpVNIyoGSlMjIyqKurw+PxYDAY0Gg0HDlyhC+//BK73U5VVRXbtm3j6aefJhAIAODxeCSBEaf+iBEjeOONN9Dr9SQkJPDuu++SkpJCRUUFHo8Hu93OwYMHqaqqQqPRUF5ezgUXXMDbb7+N1WolLS2NhQsXYjAYGDJkCB6PB5vNxpEjR/j6668xm81kZmaiVqvp27cvCQkJLFmyhP/3//6f5HQ0Gg3t7e2sXLmSnJwcNm3axLJly7j33nsJBoNUVFSQkJDAk08+yXXXXYdGo2Hz5s0MGDBAiiUHDx4kISEBm81GR0dHBGcUQwxnitNWeooFnZeXx65duzh8+DDJyclcdtll0kpx2WWXsWnTJgBuvvlm9Ho9H374IR6PR4olBoOBQ4cOATB+/HgmTpyIXq/H6/UyadIkjEYja9asYfPmzZjNZs4++2w0Gg1xcXH069ePrKwseWoGAgH69u3LV199JU9etVqNx+Nh3rx5BAIBjEYjDz/8MHl5eXi9XrRaLUVFRcTHx0txxuv1csMNN6DT6XjnnXdQq9WkpaXxq1/9Cp1Oh8vlYuDAgaxatYq33nqLtLQ0MjIyuPrqqwmFQsyfPx+NRkNiYiIPP/wwFosFl8tFaWkplZWVvP322yQnJ3Pbbbdht9vR6/UMGjSInTt3Ulpait/vl/4soVCIjz76SHJKd955J0OHDqWzs5P4+Hh+85vfMHv2bF5//XUMBgNJSUmMHDmScDiM1+tl9+7dDBgw4Ed9aTCGfz+owlFCrtiEnZ2dbN++nWAwSH5+foQWVa1WYzQacblcuN1uLBYLBoMBr9eLWq1Gq9XS1tYmvxdstsFgYPny5Tz99NNMmDCBW2+9FZ/Ph91ux+/3y6u4QhnpdrvlCa3T6SI4FKUOQ+g0Jk+ezPjx47nuuuv405/+xOrVq3nuuedob2+Xoo1S5jcYDBERxURZJpMJl8tFIBDAbrfj8/nkFX9h/XG5XFitVun8YjKZ8Hg8sj+BQEDqZjQaDYDc7ELn0qtXL1566SUOHz7MlClTcDqd2Gw2VqxYwXvvvce0adNQq9XYbDZUquNR0IR+QzivtbW1oVKppJuvTqejrq6OadOmMW3aNFJSUmTbY0QjBiWExNDc3CydFEtKSk4qvp62H4ZQJrpcLtRqNVarlXA4LLmHrq4ufD6f3Bhutxu/34/H4wGQlgav14vZbJaEQYgGogwhi8fHxxMIBKTcL35TbvxQKER8fDwXXXQRixYtoqWlBZVKJdsoTnqhUBTEQYgk0cpYYQExGAx0dnZKhaOoq6urC4vFQiAQkPqBzs5OAElI/X5/xDtCZxMIBGTdCxYsYNmyZVxyySURbuPi93A4THx8PB6PR44v/FMJ2tnZicFgkJYgQbzmzZvHkCFD6N27tyRaMWIRww+B0yIY0VyGuNCi/KzcxOJ7wTWIjV1WVkZaWprccEqN/snKF20QCk/lZ5fLxfjx48nOzqa6upq0tDRycnIiLCVKByal9SK6b0oXbKVyNVppK96LfkdZV/Q7wvvuwIEDLFq0iOuuu46ysjLJnQnCkpeXFxEAJdo6I74TRBSOc167d+/G6/Vy/fXXR+h5Yojhh8BpiyRnugCjzalK9v77LGpl88UGC4VC8v6HVquNIBL/1xD9FQTHZDLJjd2TyflUx12pzwGkKBjjLmI4Ec5EJPmXXTBQ6giiL11933IFxCYTROLH6OEoxkEQA6/X243LOZMxEu+K+wBCxINY1K0Yfjj8ywhGT66q35drUZatLE/pUKUUNX4MmyZ6HJQObdC9D6fLYSiv8P+Y+h3DTwM/CMFQLlZxQioXuvJ/ceKf6iJWLnpRvvisLKcn86FSXDnRBvyuDRwdQ+P7ErkTmTmVn0/22+mU+2MnFD0RSeUcnIzonWzelHMr3lWuu548dJVrtqf6YjiO0yYY0ZOs/FvEqFCaSJW/q1TH40YAeL3eU9p44ncRA8JgMEhZ3e/3n1TkUNZrMpnw+/3dkjIpxQCDwYDP55NEQsTtUKvVeL1efD5fNyL4Y0FP3NR3Lf4o9VXEe/+Kvik3tjBnC8Wvz+c7aQItZTuNRiPBYDBizUWXbzKZCIVCUscj6tNqtQSDQdxud7cxjKE7zui2KhAhhwcCAWn/P3ToEHl5eTgcDjmBSoq+atUqdDod5eXl37k4le8ZDAYOHDjAtm3bCIeP30TNzc2VgXl6KkN8HwwGqa6uJi8vD5vNFrEQRT86OjrYuHEjRUVFkkg0NjayadMmXC4X5eXllJSUSLPoj5VYiFP0VHQ30Rv2h9IrnWqbxf/CKe6bb77B6XSSmJhIYWGhNNkr26p8X8ztt99+S3p6unStj+Yw1Go1GzZsIDExkfT0dGnar66uprGxkdTUVAYPHiyDHv2Y5vbHBs2TTz75ZPSXKtXxjElHjx6lq6uLxMTEbhtfp9PJIKIGg4G4uDjeffddXn31VQoLCykqKurm2blnzx6mTJnCl19+yYgRI+Q9CFFmT2KDCI1XXV3N9OnTaW1t5ciRIyxbtgy9Xk9ZWZn0NVCytcrF4nK5eOKJJ+jXrx8ZGRnSRyIcPm621ev17Nu3j1mzZjFkyBDS09P55ptvePHFF/H5fDQ3N7NgwQLMZrP0yDxT60NPupxodjx6PKL1EtH/okMker3ebmH9ehobUY9arY7gnsT3Pc2F8r3otvfU1+i+RZerVqtpb2/nt7/9LRs3bsTtdrN27Vp27NjB0KFDu5mTlXVpNBrcbjczZszA4XBQWFgozdNC/A2Hj1sCxLWCgQMH0trayvTp09mxYwfBYJClS5fK+n6M3OP/JsT+EJcWk5OTgRNzpad9+Uxc0lq6dCmvvfYaEydO5Nprr5XehCIGp7gQJhZjIBAgPT2dm2++Ga1WKz0QhceiQCAQiOBMhHPYhx9+yIgRI3jggQfw+Xy0tLQQDocjFoi43AXHb6YqN3a0iVJYVIxGI3FxcTKGhzi1MjIyePDBB8nPz8dsNvP888/zl7/8hTFjxkiTrXJclPqV6DGLlq/FIgZku0WblR6lynilQgQTxFen00W8Ew6HcTgcvPDCC+j1eu644w7a29vlO1qtVopzoVBIXtO32WzU1NTwwQcf8MQTT2AymfB6vej1eimeiTYrY40I0cFkMsl5E45xgCT0op1+v18SatHvrq4ukpOTWb58OW1tbfzhD3/AbrfjdDrp7OyMKEuIh3DcAiQc25RjFU2UxJyKZMTKsb/hhhvo06cPKSkpfPPNN0yZMoUtW7YwdOjQUwpV95+K0758ptFoaGpqoqamhubmZg4fPszmzZtlfAvBfdTX11NTU4PVaqWiokJO3FlnnRWxidva2ti6dSsul4uUlBQyMzOx2WzSacrn87Fq1SqOHTtGeXk5a9eupbOzE71eT2JiIikpKTLm5759+9ixYwdqtZp+/frRq1evbpGExOY2mUx0dnayYcMG3G639AoVBCM1NRWdTofb7UalUtG3b1/Wrl0rr9srOYxwOBwRr1OJUCgkU9SJBSsuxgm9yZdffinrSEpKIhgM4nQ6cbvdxMfH89VXX5GRkUFeXh4ajYYDBw5QW1uLXq+nvLycpKQkPB4PW7duZdu2bdjtdqqrqzEajWRmZqLRaHC5XKxevVpGOcvLyyMYDHLw4EHWr19PY2Mj69evx263k5iYyJEjR8jKypKxW7VaLTt37sRqtUrvXJvNxjfffIPX66WsrIz09HR8Ph9w3ON1//791NbWolKp6NevHykpKRHcoEajoba2lk2bNmG329m7dy8dHR0y1mpGRobUUTidTr755hva29vJy8ujoKBAjr1ybgUx02g07Nixg/r6euneLwiwGDev10tLSwtZWVmkpqbicrmkG38MPeO0CEZXVxd2u51XXnmFJUuWkJGRweLFi3nttdd47bXX0Ov16HQ6li9fzssvv0x7ezt6vZ6rr76aW2+9laNHjzJ58mQ0Gg3/8z//QyAQYNq0aWzfvl26N48ZM4bHH39c3otwOp3Mnj2bzs5OVqxYQXV1NWq1mgMHDnD22Wfz6KOP4vf7WbJkCe+88w55eXk4nU7ef/99Hn74YQoLC7tF9zYYDOzbt48XX3wRt9uNw+Hg0KFDkmsIh8PSAQyORzbfv38/KSkpmM1m6bEpB1GrZcmSJWzevFlGF4Pjp25GRgYTJkyQxFR4u65du5bPP/+cpKQkOjs76ezsZO7cuTz00ENUVFSwZcsWXn/9dbKystiyZQsTJkxg4MCB/PWvf2Xu3LlkZ2fT2dnJ7Nmzue++++jbty9z586loaGBtrY2Zs6cybBhw7jrrrvYtWsXM2fOlOLl7NmzGT9+PLfddhuffvopn3/+OQBvvvkmqampTJo0iaeeeoqbbrqJSy+9FLfbTWdnJ7/97W/51a9+hdls5vXXXycpKYmOjg5CoRBvvvkmkydPZtCgQahUKj7++GM++OADsrOz6ejo4IMPPuCRRx4hNzc34o7N4sWLqampQa/X87vf/Q6V6ngOUK/XyyuvvEJycjJ79+5lxowZaDQaEhISmDt3Ltdeey3XXHMNTqczQjwSnM8f/vAHVq9eTWZmJl6vlwMHDkhuJxz+p+u90WikoaFBBnUSbYuhZ5wWwRA3QMeNG0d7ezsbNmxgxIgRFBUVkZuby8aNGwmHw+zbt49JkybR3NzMp59+yjfffCOvYZvNZikKbNmyha1btzJ06FBuueUW9u/fj1arjbhynpyczMyZM7njjju45pprGD9+PMFgkJdffpljx45hMBioq6vjgw8+4MEHH2TkyJF0dXXx0EMPsWTJEsrKymT7leLIG2+8QVJSErNmzcJisbB+/XpmzJgBRJooxelcXV3N6NGjZRSsaHd2o9EoT19RTyAQIC4urpvmXogZO3fu5KGHHuLCCy/E7Xbz4IMPMn/+fCoqKoiLi+Pw4cNceumlPPbYYwSDQfbs2cPcuXO57rrruOqqqwgGg8yYMYM333yT6dOn8+yzz/Lwww9jt9uZPHkybW1t+P1+efX+qaeewmQy8dVXXzFz5kz69+/PxIkTsdvtfPDBBzz//PMYjUYMBgPDhg3j66+/ZuzYsZhMJmpqajAYDAwcOJCdO3eyf/9+RowYwaRJkwiFQjz77LO8/fbbDB48mIaGBhYsWMC9997L6NGjCYfDPPTQQ/z973/nkUcekZ6tgUCAe+65B4PBwN69e5k5cyY+n4/Nmzcza9YsVKrj7u9vvfUWpaWlPPTQQ6jVahYtWsR7773HBRdcEOHJKzjNjz76iFWrVvHcc8/Rp08fAoEA9957bwQxEIRFr9dTVVVFr169yMvLkzq1GHrGaeswfD4fQ4YMYdu2baxcuZLS0lImTpyIz+eTSVIuu+wybrrpJvbt28e6detkyH6TySRlYhFGTqPR0NzczK5duxg+fDg2mw2n0xmhyBMyurihqgyTrtFo2L59uzyZFi1aJFMDNDQ0dLOI6PV66uvr2b9/P1OmTJFihzK/ihA3QqEQNpuNxYsX4/V6ueCCC6QiV6mTCIVCDB48mMrKygjiIE686BNLpVLJ6N5Dhw6lvb0dm83Gueeey+LFi+VFu8TERIYOHSqv52/fvh2j0cjo0aNl3JHLL7+cxx57jMbGRhwOh7wcJzZla2sru3fv5tZbb8VoNNLa2sqwYcPIzMxk06ZNDB8+XOolAoGAlPXPPfdcpk2bxr59+ygvL6empobCwkISEhLwer0kJCQwduxYXC4XBoOBsWPHMn36dHw+Hzt37iQcDuN2u1m8eLGc56amJiniiXEQ8ygCNwcCAXnHSKvVcuTIERoaGigtLeUf//gHgUCA9vZ2Ojo6aGlpweFwRIwrwKpVqxgzZgwFBQW0tLRI86lS+Sr0IocOHWLZsmXcfvvt6HS6CD1MDN1xRiH6PB6PVDb6fD5aW1vR6XTyREhISMDlcskN2tOtUL/fT2lpKRdffDGffPIJ06dPJyMjg1tuuYVRo0bJq9wni3gtyhM3NVesWCG/9/v9DBw4sFvyILVaLW+WxsfHy/Dq0XUI0aWpqYkPPviAn/3sZyQkJEhlnFJbr9frmTt3LitWrJD5QQRRKCoq4r777ut2p0XI8EI/IIhCV1eX9BUAInxNhEVKuLwHg0GpWBZ9iu6r4IaEKCU2S0JCAm1tbd0sAmLsSkpKSE9Pp6qqipKSErZu3crEiRMjnPNEeaFQSCokRUgCt9tNVVWVbLvP5+Oss87qZvk52VoTOi6Ab7/9lvr6ell/ZWUlFoulW1pMof9JSkqSt4yjI46JZ41GI3/6058oLCxk+PDhEXqs/yRLyengjPKSCMIgNM5Wq1VyAdDzPYae/AS0Wi133303F154IUuXLuXzzz9n3rx59O/fH5vNRjAYjPDQi/4nyjMYDMTHx/Pwww/L01Ior4TVQUCwoUJPIRa82NBKxZlarWbWrFmUl5czevRomToheiEFg0EmTJjA2LFju3EYIpK6cvyiF6+IJN7e3h6RijGawCidz0SZgs0WIQPF8+KWriBC4s5KMBiU5sjMzMyI/grLRTAYxGKxMHLkSFatWsX69evR6/UUFxd3s3SI8Wxra5OHhVqtplevXkyePFmOubAKBQIBadVQxumI/gdI5XQoFOL666+nsrJSzoEgtkrxUKw7wSmI/oqxUXKECQkJ/O1vf2Pbtm08//zz0iIk2vmfTCyEWkFEobPZbPK3M8qtqrRy7Nq1i5qaGtrb22XwWeXVc7E4xGfxu06n49ixYyxfvpy0tDTGjx+P3W6XNuG2tja5CJWsvXLDiZB2RUVFHD16lDVr1mC32zGbzQSDQXliwD89RU0mE0lJSeh0OtatW0dSUhJWq5U1a9ZIriYcPh6H4p133kGv1/PAAw+g1+ux2WzdWFvRpsTERDIzM+ndu7f8l5mZSUpKSsRGVv4fDocxm80kJyfjcrn44osvKC8vx2w2y8Ur6vD5fBQWFuJ0OqmpqSE5OZnExERWr16NyWQiNTWVYDAoN6LVasVoNNKrVy8cDgcrVqxAq9WSlpbG/v372bdvH8XFxbIen8+HyWTCbrej0+nweDwMHz6cQCDAkiVLpAlSbHJhGUpMTESn07FkyRJKSkpk4pyjR4+ydu1abDYbFotFelMKr9nDhw9HrKdork14YKakpJCUlMTnn3+OSqUiPj5eKsMFhHneZrOh0WjIzs5m7dq1dHV1kZ6ezp49e9izZ4+0+NhsNjZv3swnn3zCo48+Sp8+fTCZTN3y3/6nIhQK0dTUhFqtpra2VoqYcIaensFgkOzsbAwGAytWrOBvf/sbjz/+OKFQiKNHj0Zc13Y6nTJ8fzgcpr29Xd4o3bhxI0888YR0Fmlvb+eKK64gOTmZ++67j/j4eJ588klCoRBtbW0RQXNEwNtAIEBeXh7jxo1j5syZMm7mzp07ufbaazn77LMxGo3Ex8fz+uuvs3HjRq666iouu+wy5s6dy/79+/H5fPh8PpKTkzl27Bj5+fnMmTOH2bNnU1lZySOPPCLFhJ/97GcUFxdL86FyTE7khyH+V2rzhY5l+vTppKSkUFNTg8lk4qqrrpJu0e3t7dK87PV6ycnJ4dJLL+Xll1+mpqYGv9/P+vXr+fnPf47NZsPr9ZKfn8+CBQt46qmnsFgs3HTTTUyaNInp06czefJksrOzWbVqFWeddRaVlZV0dHSQmZlJa2srM2fOJC4ujssuu4zc3FySk5Pp168fCxcuZOrUqdI6JJx9pk+fTk5ODtu2bcPpdDJlyhQ8Hg/5+fmMGzeOWbNm8fXXXxMfH8/u3bu54ooruOCCC/jwww+ZN28es2bNIjExEZfLJYMWibEUfddoNNxwww3MnDmTe+65h4KCAvbs2UNOTg633XYbJpMJq9XK22+/TV1dHVdccQWXX345jzzyCPfffz9ZWVk0NTWRm5tLc3MzRqORDRs28Nhjj2GxWHj33Xd544038Pv9jBo1issvv1wqPv9TuQzhiX3w4EFUKhUtLS3SneC0PD3Fb8FgkPT0dNLS0nA4HJxzzjkMHDgQh8NBWVkZ/fr1k3dGkpOTqaysJC8vD61Wi8PhYNCgQWRlZZGUlERJSQnJycnk5OQwfvx4Lr30UslyFhQUkJWVJR18CgsLpdxqsVgoKCjA4XAQCAQYMGAAWVlZOJ1OtFotQ4cOpaKiQp6gxcXF0q8hLy+PsrIycnJyaG9vJy0tjRtvvJGcnBySkpIwmUwcPXqUwYMHk5GRgcPhoHfv3tIXwmw2R3AYYlxO9k88Ixyvamtr2bNnD/3798fj8TBw4EBuuukmmU9Ep9ORmZlJnz59JKcRDAbp378/OTk5tLS0YDabuf766xkyZIi8m5OdnS1jbBQWFsq4owMHDpT3YUaPHs1VV10lc7gkJCSQkZGB0+kkNTWV4uJi6SjV1tbGnj17mDhxovRvOHToEOvWraOyshKfz0dBQQG33norqampUmE5YMAAaVLVaDQMGTKEiooKyU2ItaJWH8+jW1BQQFpamoxlkpWVRW5uLqFQiMzMTAYOHIjP58Pr9VJYWCgtVhqNhqKiIvx+PwaDgaKiIhwOh3xepVIxYcIEzjnnHOLi4khLS6OpqYmsrCwZhDkrK4u0tDRyc3Mjotv/JxCMnjw9xRrt1asX8fHxMkEYnGEAHfG/8DkQuUVErE9x8qtUxy+bqVQqqQS1WCyEw2EpLiizogmFqmB3hb1clCO8GgF530M4RQGyLgG32x0RjUrcO/F4PHR1dcnkzIJj0el08hKTxWKJEKUEXC5Xt0tOpwORYOnvf/87y5Yt43e/+52Um5Xt1Wq1ciyV3pZARLsDgUCEKBWdDFu8bzAYMBgMsiwxH0r9iBAXxW/x8fFMnToVu93OXXfdRVtbG2azmQ0bNvDKK6/w6quvRoRoFEpG0c4TzYfw1xHKcRIrvwAAIABJREFUcFG3mEvRd9EOsYBF+zUajawPjiudRRwQEe5RPA//9B7WarV4PB6ZIlCpSxJinzIU4k8dQgfZUwAd6JnDOqPbqmKRiQlWDrwyq5gQSeCfIfba29vlZ6G0Usr0YiMI91xlOeJ0AiRhUd6ZEGWJz0qTptfrjTCJAhGWBWU4PGGR6AnfV4su3hPZ2pxOp7z0pFSoCm1/T6EClO1Wyv9CoSfGTqm8FaezUskZvZnhn7qeY8eO8dRTT3H48GGeeuopaRUTdYj8K0Jn0pN7tsj0Fj12oi2ibcq57Knvynd6ar/yNzEe4jsxRoK4CvFOxJhVQjmW4vN/KqKV9+LzdxIMpQJIuRiUhSoLF5Ou3LRKnOyzknAo/1Y+p6xb2RblM9GdVT5/srZEE64TQTkepwuxmIuKiuQdh57619N3JxrT6N97Uq5Gi0bRdYnvlO7xubm53HzzzTgcDmmNCQQCpKamct1110lT6qm2s6e2RCuPT9T3k7U/em5PJFIoCe+JiIGyDT91xWe0gvdE/VWO1SmJJAUFBd/rVI0hEkLpqdVq5Sn4Y4NIqq28xKf8TeSQ+alvqp8yxDpsamqio6MDs9lMSUnJSd85JZEkOkhtDN8f4jr5j9mrsLOzs8fTWIhFP+a2x/DdEH400TFATrbPT0owhAPM3r17u7GMMcQQw08HIinXd6EbwRCURVyi0uv1MnNZDDHE8NODUCqnp6d/97PROgwlhLPVd/n9xxBDDP++ENKDuP5/0mdPRjBiiCGGGJQ4JbNqDDHE8NPHqRg0vpNgxKwiMcQQg0DMLhZDDDGcMmIEI4YYYjhlnFQkiekvYojhp4MfQr1wUoIR01/EEEMMSpyUYIhr4CdK0hNDDDH8+CFuEouYFt8H3QiG8CP3+Xxs2rQJk8nULS5mDDHE8O8B4ZAlAjuLeDRnup9Pelt1x44d+Hy+WDaoGGL4N4UIBi3i7RYXFxMfH3/GROM7lZ4qlYrc3FxUqlPLCB5DDDH830PchPZ4POzdu1fG5Ny1a5cMdXkmOC0ryX9KnMMYYvgpQLlfRSSxQCDAzp07JdE4XU7jtCNuxRBDDD9+iH2rTDyVkZFBY2Mjfr+fnTt3UlBQcNriySm5hvcUHi2GGGL4cSM6FKLJZCIzM5P6+nrJaRQVFZ0WpxHz9PxfRDR3JhRQ4p/yt564t+h3T5fTE88J0/jJ6joTKMuK7ptob3TcyJ8avmuOoscnes6Vn8W4KX+Pruf7zKVIx5mZmSlTctbW1srIaqdS1r+EYEQPzH+SiKMMbWg2m0lISCAhIQGr1SrTHpxIN6R8Ny4uLiKd4+nUbTAYIsLq/1BcojJ4r8FgwGq1YrfbsdlsETb/noIOnwxnsl7+L9aYGE9Rh0iXoKxb/G40GrFYLDLKvZJzD4ePR0y3Wq0ycFX0PCnLEbl1ewqeHN0+5f8i3oXFYiE3NxetVktXVxe1tbXdIu6fCKedZuBMoFwwIpT+98nt8e8AMekikVIoFGLlypXU1dWhVqtJSkqirKwMh8MhT4yeYmeKMqqrq+nduzcpKSkyJeJ3QWQo3717Nx6Ph5KSkhPWdaZ9FHO6c+dOdu3ahdvtRq/Xk5+fL3NcnGp7BaKjt4t6vqvNyhQEwP+6VU+5wdRqNRs2bCAvLw+DwSDTeAqT5rZt2zh8+DClpaUkJSXJ9R8OH88N0trayrJlyygoKCAnJyci76zoi06no7a2FovFQkZGhoy1+10QY3j48OGIOnU6HR0dHRgMBnbt2kV+fj5Wq1W+pxxz8fcZcxhKD9BoVkr8pmRLRcq/jo4ODh06FFFGNKsWzXaJ35Vl9vR3NEsYzTKfyvPK35TtV/ZRlBfdbuUzYqOr1Wr8fj8zZszgD3/4A/X19dTV1fHXv/6VZcuWyXyf0d60oi2CuL7++uvU1tZK4nMi9lc5piKB0RdffMHChQslR6MUj3ry5I0uR/lbT+Oj0+l47733mD9/Pnv37mXDhg0899xzTJ06VSZPVtYV3fYTrRc47m0sAiaf7B0x3nA8B42IaN5TfT2th5OtC+V899ROk8nEypUrmTNnjiSgjY2NdHZ2yjwvixYtYtq0aezatUsmzBJlmUwmPv/8cx555BFmz54d0R9RpyA8mzdv5qWXXsLn80XkgYmGkrsJhUL4/X6ampo4ePAgTU1NNDQ00NraSjAYxOv1otfrqa+vj+hzNIcDZ8hhhMNhmWE8EAgQFxdHKBSSyWmUmcT9fj9er5ekpCS+/vprnn/+eS6//HJuv/12jh49ik6nQ6/X4/P55EkkMlZ5PB60Wi0GgwGPxyOdT3w+HwaDQQ5EXFwcKtXxBDsi52l0FGRB9UXmK8EaioUlJshgMMhcIaJPIrNWIBCQeTf1er1MEyBONTEOog3h8PEMbkuXLmX79u0899xz9OnTRyYx6urqkv0yGAwy5YDYhILYqFQqtFqtrCM6mVO06CL6rkwQFJ1BXmSCE5tBPCueUZbj9/t7zDIm3hOeweeccw6//vWvcTqdNDY28vjjj/Pee+/x61//WqZljIuLo6vreDZ5kcVMiC/ie5F5rrGxkRdeeIHf/OY3pKSkROSaFe0Lh49nXQsGg5jNZlpbW3nmmWf41a9+RVlZGW1tbRgMBpn9TNl/lUolUyxGr6PodaHsdzAYlERMq9XidDqZN28eN9xwAw6Hg2eeeUYSTZF6UKPRoNPpUKlUmEymiJy5Xq+X4cOHEw6HKS0tlW0UdYp5CQaDXHHFFXz99dcsWbKEa665ho6Ojh6JhrKfvXr1kpnto6FSqfB6vQQCAbnvBFwul1zLWq0Wq9V6ZgRDpVJRW1uLRqMhNTWV6upqEhISKC8vx+PxsH79ehobGzGbzfTt25fExEQOHTrE+vXrOXr0KEeOHGHt2rUkJSXh8/lkrsukpCQ8Hg+1tbWoVCqKiopobW1l3759lJSUsHfvXpqamhgwYAA7d+6UWt+amhoaGhrIycmhpKSkW9BitVrNvn37cLlcFBUVUVdXx86dO7FarQwcOFCyjwaDgf3791NXVyeTChcXF9PQ0MDhw4dJTk4mNTUVtVpNY2MjbW1t5OXlybR/27ZtIz4+nqysLJmcWaVS0dHRgclkIj09XWbkUk6Oy+WitrZW5p/VaDQ0NTXR3t5OYWGhJBpqtZr169fLZ0tLS+UJpNVqCQQCVFVVcejQIaxWKyUlJeTk5HTjolQqFQcOHODAgQO4XC7S0tJkJnexYb766iuam5ux2+0UFhaSnJwsT86NGzcCkJGRQUFBgTwgxEbzer0UFBQwduxYvvrqK9xuNw0NDXKt6HQ6Kisr0el0eL1e1q5dy5EjR8jKyqKsrAyDwUBzczPV1dUcOnSImpoaGhsbyc7Oxm634/P5WLVqFU1NTaSnp9O3b18MBgMtLS1UV1dz8OBBNm7cSFtbG2lpaTQ3N8ss8CJvrbAUpKen09DQQHp6OlVVVRw+fJj8/HyKiorkyW4ymTh8+DCbNm3C7XZTUlJCQUGBzHj/2WefYTabGTx4MOvWraO2thaXy8WOHTtwOp0UFRXJuRZixebNm0lMTGTgwIGEw2FsNhuDBg0iPj5eih/Nzc1s2bIFn8+Hw+EgMzOT7OxsLrjgApYuXcrFF18ckfmvJ4Kh0WjIyMjokQsRhPDQoUMys6B4NxQKsWnTJlJTUyWBzM7OPrNkzADPP/88n3zyCbW1tbz88stYrVb69evH9OnTmT17Nps2beLLL79ky5YtjBo1ioULF/LOO++QmZnJjh07ePPNN6moqGDDhg08/fTTFBQU0L9/fxoaGpgyZQorV67kuuuuo7q6milTptDR0cGbb75JVVUVF198MVOnTmXNmjVs3bqV3//+99TU1LBq1Sr69OlDdna2JBqCyr711lvMnj2bY8eO8fvf/56VK1dSVVWFTqejoqICtVrNRx99xIwZM/jyyy9Zv349y5cvJzU1FbfbzeTJkzl06BCjR49Gr9cza9Ys3nrrLQYMGEBRURErV67kgQceIDU1lYEDB8pNrlKpMBgMfPzxxzQ0NNCvXz9sNht+v1+euNu3b+fpp59m7NixUkG5ePFiFixYwIQJE/B4PKxYsYLt27dTU1PDsWPHWLBgAX6/nwEDBkiiM336dL744gtUKhWrV6/GarXSv39/vvnmGzo7Oxk1apRcsC+99BK7du2ioaGBv/71r4RCIfr3749areaNN95gwYIFqNVqVq9ejd/vZ9iwYezatYupU6dKYllVVcXAgQNJSUnh008/JTExkbPOOkue1qtWraKlpYVzzjmHqVOn8u233/KPf/wDr9fLqFGjaGtr45lnnqG6uhqfz8eiRYvYv38/I0eOZPPmzbz//vsEg0H27NnDt99+S0VFBRaLhWeffZbly5cTDAb5+OOPqa2tZdSoUezevZu5c+fi8/mor69n06ZNlJWVMXv2bHbv3s2YMWPwer3odDqee+45nE4nJSUlPPvss6xbt44NGzZw5MgR5s2bB0C/fv3Q6XRs3LiRZ555hqamJpqbm1mwYAGJiYkUFRURCASYN28epaWllJeXc99998lE2R999BFVVVWMHz+empoaDhw4QGtrK3/+85+pqqpi1apVaLVahg8fzvLly7n77rvx+XxcdNFF7N27l2nTpvHpp5+yefNmFi1ahM/nY9SoURiNRj7++GPKyspIS0uTa72n3CInErWVYn9nZyeBQACtVktycnKEKO12uyWRTU5OPjMOo6urC6vVyrZt27BYLNx9990MHjyYhQsX8tVXX3HFFVdw7bXXsmLFCl577TUWL17MuHHjOHz4MFVVVQwdOpSf//znlJWVUV9ff5zV+f8tAGq1WiZCFhTSZrOxZs0azjvvPPLz84mLi8Nut1NXV4fFYmHq1Kl8+eWXVFVVUV1dzbBhw7opv8xmM8FgkA0bNnDnnXdy4MABPvroI6qrq7nyyis5ePAgc+bMwW638+STT6LRaHjmmWeYN28eU6ZMoaysjL1799La2ko4HKa+vh69Xs+6desYMWIEdXV1xMfHM3ToUJkYRrB7OTk53HPPPfz+97/njjvu4PLLL+fiiy+W2m6NRoPFYolQMOn1ein2CRfflJQUHn/8cRITE1m0aBGvvfYao0aNoqSkhPfff5/GxkZeeuklkpKScLvdMoeoUtYNBAKkpaXx8MMPk5GRQXx8PPPnz5fEKRwOU11dzR133MH48eM5duyYXDRbtmxBo9Hw+uuvEw6HaWlpAZDiCiDzpa5fv55PP/2Uq666CqPRiMfjwW63M2fOHPx+P1qtloULF9LR0cGLL75IYmIi27dv56GHHpLvJSUl8dxzz/HEE0+QlZWFSqXi7bff5sCBA8yaNYu0tDT27dvH5MmT+dvf/sZNN91EUlISTzzxBJMnT6asrIyuri7Gjh3LO++8Q1NTE8nJyVKOv/3221GpVJITmTp1KiaTifnz5zN37lzGjBlDcnIys2fPZty4cdx6660AvPPOO/zlL3/h/PPPx+12c+DAAS666CI0Gg233HIL8+fPp729nV/84hekpqbKeQwGgxw+fJg777yTPXv28Mknn7B69WpuvPFGDAYDdrsdk8mEVqtl06ZN1NXVcf7553PDDTdQV1eHyWTC6/WSmJhIr1692LFjBwMGDMDtdksxWnnoRxORntCTj5X4Lj8/v9vzZ6T0VKvVkn392c9+xi9+8QtycnLYsmULNpuN4uJi1Go1KSkpWK1W6urqKCoqYsCAAbhcLnJzc7nuuuvIzs7G7/dHsMpK5aFouNvtZtCgQdx///2MHz9eysMGg4Hbb7+dSy+9lIsuugitVovb7e6W2k/87fP5uOaaa+Q/q9VKZ2cnwWCQXbt24XQ6KS4uxmazYTabSUtL4+jRowD07duXo0ePsnPnTrZv347f7yc9PZ1169bR3NzMtm3byMvLIy0tTeo54PjVYp/Px7Bhw3jppZe48MILWbBgAY8++igtLS3StBWteFQq80QfLrzwQiwWC62trQwePJiEhAT27NmDRqOhpqaG888/n6SkJNra2giFQpIIK810wWCQhIQEsrOzcTqdHDx4EIvFIpNWxcfHk5OTw/z581m5ciUqlQqLxUIgECA/P5+2tjZef/11GhsbpZlQsO0rV67kscce47HHHmPatGmMHj2aK664Quqizj77bJmE2+12s3XrVkaPHk1iYiLNzc2UlJQwYMAANm7cKPVF4XAYv98vRbktW7Zw9tlnk56eTnNzM3369OHss89m48aNMq2j8h2Xy8XgwYNRqVSsW7cOs9nMpk2bSExMJCsrC7/fj1qt5sILL0Sj0dDW1saIESPQ6/U0Nzdz9OhRmpub0Wq1LFq0iI8//pj29nacTift7e24XC7cbjcOhwONRsM555xDQkICoVCI8847j7Fjx0o9RCAQ4Oqrr+bqq69mwoQJWK1WvF4vLpdLigFi3u12O2q1mgMHDrB161YqKysZOnQoHo8Hi8WCzWajubm5x5y8PxR6KvOMzari5DObzTKTt1gY77zzDn/+85/RaDRotVpMJpPUxgpWp7W1VSqBBMTJHG1KC4fDWCwWgsEgbrc7QkGp1+txuVwYDAaZgb0nc5ooy2Kx0NnZSSgUwmg0SuVbW1sbJpOJLVu2sGHDBuCfnIler6d///4sXLiQrVu3cuTIEQoLCykoKOD999+Xsu/w4cOJj4+XlgEBlUqFx+PBarVy8803c/755/Poo48yZ84cpk6dGmEBiEa0qVCZncpkMkmFn9vtxmazySzwyj4rWVOtVktLSwsffPABu3fvxmg0cuzYMfR6vTwIfvnLX/Luu+/y7LPP0qdPH375y1+Snp5OcXExd9xxBwsXLmTp0qVMmDCByy+/XBKi3r17M3jwYDQaDQUFBWRlZUliKLgbwVEJRZsgRuIQsNvtHDx4sJuSTqkgtFqtMhN7IBAgISFBXrBSjrsgTklJSQwZMoQVK1bwX//1X9TU1NC3b18sFgtHjx6V/RZjpNPppH5FHEDbtm2LUHqOGjVK6lrUajV6vZ6uri7cbrdcxx0dHbS3t2M2m+XYW61WXC4XcFyBrDwcxTz7fD4qKioYN24cS5cuZfr06fTu3Zvbb79dEj/BtYm6TmQt+T7oqbwztpKIRorOis2rUql46KGHSE9Pl3KRYMeEgkY4qQittZgsoS0XGttoJYz4W6m9Fgsw+iQ90QAqF6Ly+fj4eFwuF1deeSVXXnklnZ2dcoFYLBYKCgpITU1l586dNDU1ceONN1JWVsb8+fNZtmwZoVCIQYMGyT5F+54oZcK8vDyuuuoqFi5ciNPplApQoWRTq9Xd+iTKEnJnV1cXnZ2dUr+k1+tlvlMx1konItF3jUbD7NmzaWpq4q677iIlJYWamhoWLlwo33U4HFJn88ILL/DnP/+Zxx57DL/fz7nnnsuwYcNYuXIlr776Kjk5OYwaNQqfz0dpaSlXX321lIlFaASlv4Jou16vR6PRSHZabHa32y2tWEKWFu9otVrZT0FgtFqtPDAEt6YkrmLtnXPOOTz//POsW7eO1tZWxo8f3y3Oi3jX5XJJ1l9YKm6++WaysrLkoSg3kGJ9i3kX/TUajfKuhpi/6PWnVqsj1qtY10ajkfvvv59x48bx2Wef8dlnn7FgwQKp4A0EAlitVrlO/lV5bs+oFsEFCFNfKBTCarWSm5tLa2sra9euBY5P2Pbt2yMmUafTUVdXx6pVqzh69Kjs9Jo1a1izZg3vvvsura2tcsHAPyMGibpF/crFqDQ9RhMLMaDR5QhzYzgcJi8vD5PJxIYNGzh8+DAmk4n6+nqamprQaDQkJibSr18/9uzZg8FgoLy8nMzMTEpLS9mxYweJiYnk5eVFmO5EvS6Xi0AgQGJiIsnJyTI4UVJSEgaDgbi4OAKBAM3NzTgcDjo6Ovjyyy8jOAXBUdlsNux2O8uWLSMcDlNYWEgoFKK4uJjly5fjcrno1asXcXFxUjQThMhut6PRaNi9ezfl5eUMGDAAh8PBnj17JGHr6uqSG724uJhRo0bR0NCA1+slFApJLmD8+PEkJCRw4MABOY6BQIDOzk46OzsjxDIxh8oNIYjw119/jdvtJiMjgyNHjrB582ZKS0vlfPl8PnQ6HVarFbPZTFFREdXV1bS2tpKRkUF7ezvr16+nqKgowlSq0Wiw2+3o9Xo8Hg/FxcVkZmby4YcfYjKZKCwslByvsEoIT9VPP/0Uq9VKRkYGiYmJxMfH88knn6DX66XpvK2tTery1Go1x44dk+tSEN7Vq1ezdetWfD4fWq0WrVYbcQgq16PoLxznPBobG1m6dCmpqamce+65mM1mPB6PFNXcbjdJSUk9+kz8b+KMRZLOzk5aW1slSxQIBLjsssvYtm0bc+bM4eOPP5as8pNPPknv3r3JzMzEYrGwZs0ali5dyi9/+UtGjBjBggULqKqq4h//+AcVFRUMGTKE6upqnE4noVBIKt6UG1HIkKL+YDBIa2trN794QTw8Hg8tLS1yE4XDYdrb2wkEAnJBTZgwgfnz53P33Xdjs9k4ePAgY8eOZfLkyRgMBvr27cuiRYuorKwkPT0dnU7HoEGD+OKLLzj//PNJTEzE5XJFiFRGo5G//OUvLF26lPz8fIxGI/X19XR0dDB58mQCgQAOh4Pi4mJmzpzJ0KFDOXDgAJmZmRw+fBiXyyV9Fd566y3WrFlDS0sLe/fu5ec//7k0RU+YMIGNGzdyxx13UFlZSX19Pf379+eWW24hIyODTz75hMcff5yxY8dy8cUX8+abb1JfXy814MJq43Q6eeGFF0hJSZGE/JJLLiExMZE5c+ZQXV1NYWEhu3fvBqCyslISCq/XG0EYgG5jrdQnXXnllTz99NPcc889lJaWsmHDBnr37s35559PR0cHqampaDQafve735GcnMz555/P1VdfzcaNG7nvvvuoqKhgy5YtWCwWLrnkEpxOJ8nJyVgsFl599VUWL17M4MGDOeeccwA477zzeOaZZ7jllluIi4uL8KX44x//KE2ydXV13HXXXZLjnTRpEq+88gp1dXVkZWWxe/duBg8ezDXXXIPFYsHhcLB7924GDRpEXFwcWVlZrF+/nj/+8Y+oVCppuTl27Jgcg66uLtrb2+Va8fv9tLS04HK50Ol01NTU8OKLL+JwOAiFQng8Hi699FJ69epFc3Mzx44dizC5/2+IJD3hjM2qvXr1orKyksLCQskiJSQkcNZZZ5GTk0NaWhqDBg3i+uuvp6ysDJ/PR2pqKtnZ2TgcDsaMGUNlZSW5ubkUFBTgcDg477zzmDRpEhUVFfTp04fMzEysVitFRUUMGjSIxMREOTCpqamcddZZ5OXlSaeYgoICBg0aREpKimyrGEybzcaAAQMoKysjLi6OcDgsZe7s7GxUKhX9+/enpKSEjIwM8vLyuOyyyxg3bpyUNZOSkkhPT2fkyJGkpKTg9/txOBxkZGQwfPhwqexSsoddXV0kJCSQlJQkWery8nJuvvlmsrOz8Xg86PV6+vXrJ+XgMWPGcMkll+BwOCRbXFZWRq9evVCpVGRnZ/Pf//3f9O/fH5/PR1dXF3a7naFDh2IymfD5fBQWFjJ06FD0er10KRf+EcOGDSMzM5NwOEy/fv245pprSElJkRr9+Ph4KdaMGzeOsWPHSmcqg8GAz+cjMzOTG2+8kczMTHw+H8nJyRQXF5OQkBDBXot5ED4bRqMROM592mw2hg0bJh3ghg4dysSJEzEajQQCAcxmM3l5eXi9XpKTkykqKiIlJYUhQ4YQFxeH2+1mwIABTJo0Seo1jEYj+fn5+P1+7HY75eXl0gKl1WqlVUw4M/l8PpYvX07//v2Ji4sjJSWFm266ifLycslV5ebmMmDAAOlbU1FRwYgRI9BoNJjNZvbv309tbS1jxoyRyuHk5GQKCwu58MILycvLIykpiYEDB1JWVobRaESlUsn1l5mZSVxcHMXFxQwaNAibzUZSUhL9+vXD4XBQWFjIhAkTOO+889Dr9dTU1LB582auv/76iHV+JhAcsN/vl6ZT5T7vRhvCUdo2MdmdnZ1s376dYDBIfn5+NypmNBqlVUKc8oK1E+7OQoMuvOaACFOh+E04/giFj3hOnNaCvfZ6vbJ+4ZXndrulfCuUq8L7UNkno9Eo2VNB5c1mM4AsQ5SrHEyhWBKfRYxTwXJrNBqMRqP0howeJ2EiFZeKlGZSobgT4oDS41F4pAqCoCxDKACFe7B4R6fTdfMiFHUYjUapR/H5fJjNZimOuVwuWVc4HJbjItrvdrsj+qEsX5xwSg/O6LEXYy28OMXvPbXZ5XJFKAGFbkKsDcHei/rUarU0+4qx1Ov1EV7BPp8Pu93O3Llzqamp4ZlnnpGiTltbGw8++CD3338/Q4YMkWVFj61YP9F1GgwG6uvrpXWosLBQOnQJ/Zo4FPR6fURbxVpzuVxy/fr9/gjvX6VC3O12Ex8fzyOPPEJeXh633HILHR0dUg9yuhDcVXNzM52dncTFxcn7Pycq74xFErGIlEobIbsJrzHlSSM+u91u2VhBJDwej/xOTJJg14QFQ2k9Aejo6ACQ9QeDQdrb27s9B/+0Urjd7oj2Op3OiDLC4bAUaZTtUS5wcatPqVhTfqcUhUTdwiQYXa5S3xIKhWR7xHgJMUxZhrJPyvqExUDJooq2CwWpsmzxWbwr6gIi2qEsR9kP5fwBctx6Gnsx1spxFvUq560nJaDSXV6MWSgU6vaOciwFkRCbu6urixkzZrBq1SoefPDBCD1WOBzG5/PR0dFBZ2cnHR0dEbow0U7h0xLdTq/XS25uLiNHjuRPf/oTTz31lBxv5bPR66+rqyti/QklsRjDYDAY4R4QCoWkLuXYsWPce++93YjzvwJnTDB60spGLyIloYimWtEsa/TzSvNYtIky+jvxfU/Pnai90c9Htz26PaK8nvrdU9miTLFgojdRT3qLP8nZAAABmUlEQVSW6IWsfO5EG1H5t/KZ6LZH9yv688l++67yoec5OtFYK8fnROsl+tkT9edk7wh9SiAQIDU1ld/85jdUVFRIZacwrU+cOJHMzExpdYke6+8aW5/Px7XXXstnn31GZ2cnFotFcqzKdR49rtFrONocrnxeKKRVKhW33nprhL7sX0k0zlgkiSGGfwcoRSLhCxRNsIRIKUTr0y0fjhMA4YnZkx/QD9EPOK4KEJasng600y3zBxdJlDJUFG2JIYZ/CwiRqCduROhwvq/HpBBnv285J4MQreGfMS6+z94U759OGbGYnjH8R+BkuXV+qLw7/4r8PScSJb9PeUqR87vK/c7cqtGydgwxxPDTQDj8z+BBPenUesJ3EoxQKERdXd0P39oYYojhRwNhpv4unJBg6HQ6eQsxOr5gDDHE8NOA0oIp/G9Ots+7WUmU8Pl83eJWxhBDDD89hMPhiJgsJ8JJCUYMMcQQgxKn5LgVoykxxPDTx6moHE6JYMR0FzHEEAPEUiXGEEMMp4EYwYghhhhOGTGCEUMMMZwy/j8T0875Rt+C9gAAAABJRU5ErkJggg==;" vertex="1" parent="1">
                    <mxGeometry x="820" y="470" width="208" height="193.25" as="geometry"/>
                </mxCell>
                <mxCell id="49" style="edgeStyle=orthogonalEdgeStyle;html=1;startArrow=none;startFill=0;endArrow=oval;endFill=0;startSize=31;endSize=10;" edge="1" parent="1" source="48" target="6">
                    <mxGeometry relative="1" as="geometry"/>
                </mxCell>
                <mxCell id="48" value="" style="shape=image;verticalLabelPosition=bottom;labelBackgroundColor=default;verticalAlign=top;aspect=fixed;imageAspect=0;image=data:image/png,iVBORw0KGgoAAAANSUhEUgAAALsAAAApCAYAAABtPlgiAAAABHNCSVQICAgIfAhkiAAAABl0RVh0U29mdHdhcmUAZ25vbWUtc2NyZWVuc2hvdO8Dvz4AAAAmdEVYdENyZWF0aW9uIFRpbWUAbWnpIDMwIG9jdCAyMDI0IDE3OjMwOjIxsaqPAAAAFPZJREFUeJztnHtsVMf1xz9793H34X34uYvB2MU2NiGhECjF4SHqQgkppAUSUNWmqtSoIij0kYIoUqgIhSZRBaFpFKVuApEaoaZRhQRBoQWFPkLLw6QFY4HBULCLF2OMWdv7vHf3/v5AM91dGzB5YH7NfqWVvbNz75yZOXPmnO+Ze02GYRjkcFdw9uxZotEo5eXleL1eDMPAZDINt1ifGSjDLcBnAcKeRCIR3G43sVhsmCX6bCKn7HcBwnqbTCZSqRSKomSU53B3YEp3YwzD4Pz58/T396Np2nDK9T+JRCKByWTCbDZLhc/h9jCZTFitVhwOB9XV1XKnvFNjYUn/YhgGly9fxm63y4nJ4ZODruukUimsVmtO2e8QmqaRSqU4e/asVPg7jXkylD2VSmE2m4nH4xQXF2Oz2XJB1CeM3HgOHYZhoCgKkUiErq4uUqkUQIbC3wkylF1MQiqVwuVy4XA4SKVSucnJYVhgGAZmsxnDMEgmkyiKQjgcBqC1tZWqqqo7Mh6W7AJxcTKZJJlM5pQ9h2GDsNzColutVrxeL1euXAH+q/Ci7u30dICypzMH6Z8cchgOCP0TRre4uBhggMKbTKbbKnwuSsrhnodQ4lQqRSqVoqioiOLiYvr6+ujr6+Ps2bPA7dmZnLLncM8j3WoLhS4pKSEQCBCJRAiHw1Lhb4WcsudwTyOdYjQMg1gsRjQaJRqNkpeXh9vtpr+/Xyq88O8HwwCfPQcykhbCVxyKT5h+vaifbpHuBu04XG1ntwtktC2+f9R7mkwmEokE586dy6gj7hmJRLDZbLS1tVFRUTFof3PKPgjEIBmGgcPhIJlMomnaoJOVPpHZ/5tMJhwOB4lEgmQyeVcCfdG2xWLBYrEQj8fvmqILqKoK3GBRNE1DUZQ75sThv32xWq1YrVZZlt1uOmtzq8x/TtkHgRg8RVFoamrC5/MRCAQGVdj0hZH9v67rHDt2jNGjR+PxeO4KjSu46atXr9LV1UVlZaXkqj+tttMVzmw2c/78eQzDwOVy4ff7SSQSHzljnEqlBhwTSIdYDMFgkGQyidlsvum9hiRB+tZkGIaMilOp1JDKxW+3uza9M9llH8UyDFXmwdoV2+bzzz/Pnj17UFX1pn0Qh7t0XZdpbYvFQmdnJ+vWrePDDz/EbrfLvMWt5BlM3pvVGaxuMpnEbrdz8uRJXnvtNbkjpc/DR52jm42lKLPb7TQ1NdHQ0MCxY8fYsmUL8XgcRVEGjPNQkO4GKYqC2Wwe9KMoinQ5b9XGkJQ92/ey2+24XC5cLhdWq1V22GazyXKz2Zzh79psNkwmk7zW4XAAN1auzWaTW58YUOECiC0wPbsrEl7Zn/SJy97iHA4HLpcLp9Mp76koSsZ3UVeUWa1WNm7cyKJFi4jH4/IQl+ij6IPL5eLixYu88MILGIaB2+1G13X8fj8vvfQSU6dOJRqNYrVasdlsGfLY7faMPosxS5dXjF22D3ur+cjOl4g2VFWV982eIzEHoo7D4Ri0XafTOeB3cczkrbfeYubMmTzxxBPous7OnTtxOp0DZB4Kso3Q7T63u/+Q3Jh0X9RisdDa2srFixex2+2MGTOG/Px87HY7ly9f5syZM9hsNmpra/F6vcTjcQA6Ojrw+/20trbS1tZGaWmpTAZ0dHSQTCYJBAIZLkBbWxsjRoyQ/pphGHLy0zsllKSvr29Qn85qtdLS0kJbWxter5fx48ejqiqRSIRz585RWlqK0+mUbkpLSwtFRUV4PB4cDgdWq5VkMonFYiESiXD48GFisRh+v5+Kigp6eno4fvw4Fy5c4PTp09LtsVqtuFwuFEWRqe5wOIzf76e5uZlgMEhZWRmVlZUZh8SSySSnT5+mq6sLl8tFIBAgPz9/UMVLnw9VVamoqOBzn/vcALcKbiyK//znP7S2tuJ0Ohk3bhwul4tEIgFAe3s7I0eOpK2tjXPnzuHz+Rg/frzctcRCOnHiBMFgEL/fT21tLXBjgRw8eJBwOMzs2bMBWLBgAW+//TaPPvroRzpnlb5gb1dvKHXvSNnNZjPbt29n3759VFdXc+XKFaZMmcLKlSt577332LZtG4FAgHA4jKZp/OhHP2L8+PGEQiEaGhpwOBwEg0Hsdjvnz59nzpw5/PCHP+To0aO8/fbbvPLKK3g8Hmw2G4cPH2bbtm1s3boVm82Grus4HA72799PU1MTdrtdyqXrOj6fj6VLlw5Y2Yqi0NDQwMGDBxk9ejRtbW1UVlayatUqrFYrv/71r/H5fDz77LO4XC5+//vfs2vXLl588UVsNhsbNmxg1qxZPPHEE3R1dfH888/T2dlJWVkZ7e3trFmzhitXrvDOO+9gsVh49dVXcbvdrF27FqfTyapVq1i5ciX19fU0Nzfzm9/8hurqak6dOoXb7eb8+fMsX76cOXPmoOs63d3dvPLKK1y6dImCggKCwSAOh4N169YxcuTIjABMURTefPNN/vSnP1FVVUV3dzcTJ07kmWeekRScsHqqqrJnzx527NhBWVkZPT09WCwWVq1aRUVFBaFQiM2bN1NVVcWpU6fweDy0trYyd+5cnnzyScxmM7FYjF/+8pecO3eOkSNH0traysyZM/nud7+L1Wrlr3/9KxMmTMDr9RIOh5kwYQJvvfUWzc3NTJ8+nb6+PulyDAeGrOwul4u///3v7N27l2effZbJkyfT29tLKpXi0qVLbNu2ja9//essW7YMTdN48cUXaWho4Be/+AU2m41IJEJ3dzcbN27E7/ezf/9+tmzZwuzZs5k/fz5/+MMfOHLkCI888ghms5nDhw/z4IMPUlhYmGGx033G9K0/G+Iw24EDBzh8+DBbtmxhzJgxBINBVqxYwZEjR1iwYAE/+MEP+PGPf8z+/fu5//77+d3vfsfq1aspLS0lHo/jcDgwm83YbDbOnj3LhQsXaGhooKSkhM7OTgAeeOABHA4Hr7/+Oj//+c/x+XwA9Pb2yusFs9PW1kZtbS1bt27F7XazefNmdu/eTX19PRaLhe3bt9PX18fWrVvx+Xy0tLTw3HPPEY1GM9wtp9PJ4cOHeffdd1m/fj2TJk0iHA4TjUalnyzGS1VV/v3vf/Pb3/6WJ598kocffphIJMLPfvYz3njjDTZt2iR3rQsXLvDcc88xatQo9uzZQ0NDA1/72tcoLy9n+/btXLlyhYaGBgoKCjh58iSrV69m7ty5VFZWcunSJSZNmoSiKCQSCfx+P0VFRZw9e5bp06d/Igr7cTBkNsZkMtHY2Mi4ceP44he/yLVr1zCZTBQWFvLHP/4Rq9XKV77yFaLRKDabjcWLF/PTn/6US5cuUV5eTjweZ+7cuYwYMYKenh4eeughduzYwalTp5g6dSpf+MIX+Mtf/sIjjzzCtWvXuHjxIsuWLctoPx6PM2PGjEEHLttfE/RbY2MjgUCAYDDImTNn8Hq9OBwO2tvbiUQijBkzhm9/+9vs2rWL/fv3M2/ePOrq6qSipu8efr8fRVF45513WLx4McXFxUSjURkvZCM9DjCZTGiahs/nY9GiRXJbnzRpEidOnCAej5NIJGhubmbFihXk5+cTi8VQVVUGYemLW+x+EyZMkIoufP1sF8ZisUhWqb6+nr6+PtxuN4sWLWLz5s10dnbKZ2IfffRRSktL6e/v54EHHkBVVa5du8bo0aP58MMPqaio4PTp0/T19aGqKoqiEAwGKSkpIRaLUVJSgq7rwI2dJxAIcOXKFekifto06K0wJGUXPnRvby+FhYVyKxVWtre3F7vdLv1NTdNwu92YzWZplU0mk4zKxbl5p9NJOBxG13Xq6+vZtGkTHR0d9PT0kEgk+PznPy8tWiqVwu128/rrr7Nv3z7y8vIyWJMRI0awYcMGqXji5GY0GqWzs5Pdu3fLAS8sLKSiooJUKkUsFmPhwoXs27ePixcvsnbtWhmMpgc+mqZRWlrK008/zY4dOzhw4ADz589nyZIlGXWzFTyb8TCbzRknSgVVpus6kUgETdOkoiuKkhF4Z3PK169fx+fzZbAQ6fRm+uLv6emRdUV7LpcLm81GKBSSMQEgfXgAi8VCIpFA13Xi8Tjnz59n165dUq6qqirpuuq6jtPplDIIj+Dq1asZYzJcGLJlVxQFm81GOByWUTwgGRZN0+SZY0AuCME2wH+ZFLgxoP39/XLx1NbWUlpayqFDh9A0jbFjx+Lz+ejv75cLJRaL8fDDDzN9+vRBLV22RRPuw4QJE1i9ejWhUEgGrKlUimg0isfj4d1338VqtRIIBNi5cyff+973pMKLPoo+TZ8+nQcffJCjR4/yq1/9isLCQh577DFJP6ZTkem4VTZRlIlAXNCFyWQyg10RVlook6qqRKPRAZne9DbFQnA4HITDYWk4ALnoxHMLQpbB/GoxZvX19XzjG98gFArJwNtqtdLe3o7ZbM5IvgkjKdik4caQeXaz2Ux1dTUnTpzg0qVLBAIBybZUV1cTCoVoamqipKSEgoICGhsbsdvtBAIBNE3LoL38fj+NjY309vZy3333EY1GUVWVL33pSxw5coSTJ08yZcoU2b6YxGQySUlJCWPHjqWyspKqqioqKysZO3Yso0ePlkohBjaZTHL//fdz7Ngxrl69SmFhIV6vF03TSCQSuFwu2tvbefPNN3n88cd56qmn2L17N//85z/xeDwySZGuqIZh4PP5WLBgATU1NbS0tEhKUtM0nE4nBQUFWCwWqZxiDAF5v2yGS+xcLpeLxsZG8vPzKSgo4MSJE0QiEbnge3t7iUQiGIZBbW0t//rXv+js7KSkpASv1yvbEobF4/Fgt9upqakhGAzS0tKC3+8nLy+PI0eOkJeXh9/vR9d1LBZLRlwg2hTzX1NTw9/+9je5++Tl5Umr73Q6sVgsMvAV13d3d1NQUDCA3h0ODNmNicVizJo1iz//+c+sWrWK2bNn093djdvt5qmnnmLevHm89NJLHD9+nEQiwQcffMB3vvMdfD6f9H937txJV1cXoVCIf/zjHyxZsoSKigr59MlDDz3Enj17MJlMTJw4kVgslqFowp1I32bTkZ6WFjJ/+ctf5uDBgzzzzDPU1dURi8Xo7Oxk+fLlmM1mNm3axLRp05g+fTomk4kFCxbwwgsvsHnzZkaNGkUoFCISieBwOHj//ffZu3cvtbW1dHZ20traysKFC4nH4wQCAfr6+nj55ZfxeDzMmzePESNGcO3aNZky13WdUCiUYYU1TSMUCqFpGsXFxSxcuJA33niD7u5uLBYLzc3NknlSFEWyMuvXr2fWrFm8//77cj56enpQVZXvf//7FBUVcfnyZbZu3crkyZOpr69nxowZbNy4kfr6eq5fv87Ro0d5+umn5Q4RCoXks8diVwiFQtI1XbRoEevXr2flypVMnjyZq1evomkay5cvp6SkBLfbzcWLF+Ui6e/vp6uri5kzZ2bkNoYL5vXr168XXwzDoKOjQ1qv9C00lUrhdDqZOnUqFouFq1ev4vF4mDZtGj6fj4kTJ8pA0GKxsGzZMmbMmCF59gMHDlBUVCQDqMcee4w5c+ZI31TXdQoLCzl27BiBQED+lp3qFhMx2Cf791Qqhaqq1NXVYbFY6O7uRlVVZsyYIalTq9XKkiVLpAzjxo1DVVW8Xi+FhYWoqkpNTQ0+n0/GBz09PdhsNpYuXcqUKVOIRqP4fD78fj9dXV243W7uu+8+XC4XXq+X2tpamYApKSmhurpauiyKojBixAiqqqpIpVKMHTuW8vJyOjs78Xg8zJ8/n+PHj1NXVycD4urqasrKyrBYLNTV1WG1WmW7dXV15OfnU1RUhN/vJxgMMnLkSCoqKpg4cSIFBQV0dHTgdDr51re+xeTJkyV74/V6qampwe12ywWZn59PTU0NVqtVzrcYA6/Xy+zZs/H7/djtdoLBIE1NTcyaNQtVVTlz5gwffPABS5cuRVXVT03ZFUWhr69PzndBQYHUhXRkvEojmUxy9OhRkskk5eXlA55BFWlwl8uFruty6xYv/XG5XFLRdF2X/r1hGKxZs4avfvWrLFmyRFpywSAIKq2np4fVq1ezYsUKJk2aJP3Rj+Lvpfu5iqKQl5cnY4pkMkkkEpF9EQMlBsjj8UgKz+12yz7abDYcDge6rsv7CBkNw8But6MoiqTxkskkeXl5RKNRNE2Tr4MIh8MZj5rZ7XZZpigKBQUFss+HDh1iw4YNvPzyyxQUFMgMbDQaBZAZXTEfuq5LmcQCS6VSRCIRFEXB5XLJMdE0LWOMXS4X8XhcxluifjQaRdd1DOPGORSn0yndnkQiIbPDnZ2drFmzhrVr1zJt2jQ2bdpEIpHgJz/5Cb29vZ/KGR3hKnZ0dEhipLKyctB27iipJCb4+vXrGa6F2KIE85LuOws/LR6PEwqFiMVihEIhLBaLnAi73c6hQ4d47bXXqK2tZcKECXISPu5AiDYGk1nXdXp6ejICMsMw6OnpyfCRxf+apmUErmJMBIQCpluw9EBOuDHp7aXfU1VVWlpaePXVVxk1ahSaprF3716mTp1KcXGxVEQhD3DL+RDBvZDTMAzZn/S6Qub0vgLSjRHyCiOW3Z5wx8rKypg9ezY7duwgkUjQ1NTEunXrMtite56NSVeE9MHIZhjSV2525+bPn8+YMWNIJBIZgZCoF41GmTVrFosXL86wsh8VdyJz9nXpZeL/7PukI3sS09tIv1f2vdPLBCUrjkM0NzejKAqLFi1i7ty56Lo+YJe7Vd9uJutgc3Q72W7XnvgtFovx+OOP895779HW1sY3v/lNysvLJQs03LgjN+bjQFXVm54LF0yN1WolEolk8LT3AmV1tyC2ZLvdnsEoxWKxe/otD+kMi8l0g4oWlKew6p+W7J+4G/NxBEm33NmWJ5s5EQmkz6qiCzeht7dXlqcH3PdCYmYwZO82kUhEfk93k4Zb7k9V2bMZksHKBQZLwnyWkD4mN3sA4V4ek2zG7Ga/DSdyTyrl8IngZop+s7LhwKBvBBN/hzvjlUMOt0O2nt5KXwd9I5hgEXLvEc/hXofQ1aHEeYO6MSJgFGcscsqew70KwzAGHEK8GQYouzhp19HRkVPyHP7fQLwW72bPFkCWsiuKQlFREf39/Rkn13LI4V6HxWIhGo1SVlZ20zoZSSWBj/LagxxyGE4MlrEeUGcwZc8hh/9FDP+BhRxyuEv4P9/rFmt/0nTBAAAAAElFTkSuQmCC;" vertex="1" parent="1">
                    <mxGeometry x="231.59" y="320" width="136.83" height="30" as="geometry"/>
                </mxCell>
            </root>
        </mxGraphModel>
    </diagram>
</mxfile>